<?xml version="1.0" encoding="utf-8"?>
<!-- Generator: Adobe Illustrator 23.0.2, SVG Export Plug-In . SVG Version: 6.00 Build 0)  -->
<svg version="1.1" id="Capa_1" xmlns="http://www.w3.org/2000/svg" xmlns:xlink="http://www.w3.org/1999/xlink" x="0px" y="0px"
	 viewBox="0 0 75.3 75.3" style="enable-background:new 0 0 75.3 75.3;" xml:space="preserve">
<path d="M69.2-1H6.1C2.7-1,0,1.7,0,5v63.2c0,3.3,2.7,6.1,6.1,6.1h63.2c3.3,0,6.1-2.7,6.1-6.1V5C75.3,1.7,72.6-1,69.2-1z M69.2,68.3
	c-42.1,0-63.2,0-63.2,0C6,26.1,6,5,6.1,5c42.1,0,63.2,0,63.2,0C69.3,47.2,69.3,68.3,69.2,68.3z M11.2,27.2h11.2v35.9H11.2V27.2z
	 M16.8,22.3c3.6,0,6.5-2.9,6.5-6.5c0-3.6-2.9-6.5-6.5-6.5s-6.5,2.9-6.5,6.5c0,0,0,0,0,0C10.3,19.4,13.2,22.3,16.8,22.3L16.8,22.3z
	 M40.5,45.4c0-4.7,0.9-9.2,6.7-9.2c5.7,0,5.8,5.4,5.8,9.5v17.5h11.2V43.4c0-9.7-2.1-17.1-13.4-17.1c-5.4,0-9.1,3-10.6,5.8h-0.2v-4.9
	H29.3v35.9h11.2V45.4z"/>
</svg>
