<?xml version="1.0" encoding="utf-8"?>
<!-- Generator: Adobe Illustrator 23.0.2, SVG Export Plug-In . SVG Version: 6.00 Build 0)  -->
<svg version="1.1" xmlns="http://www.w3.org/2000/svg" xmlns:xlink="http://www.w3.org/1999/xlink" x="0px" y="0px"
	 viewBox="0 0 695 1164" style="enable-background:new 0 0 695 1164;" xml:space="preserve">
<style type="text/css">
	.st0{fill:none;stroke:#D9C9F2;stroke-miterlimit:10;}
	.st1{fill:none;stroke:#C3C3F4;stroke-miterlimit:10;}
	.st2{fill:none;stroke:#ECD6F2;stroke-miterlimit:10;}
	.st3{fill-rule:evenodd;clip-rule:evenodd;fill:#CCC0C9;}
	.st4{fill-rule:evenodd;clip-rule:evenodd;fill:#43478B;}
	.st5{fill-rule:evenodd;clip-rule:evenodd;fill:#977E91;}
	.st6{fill-rule:evenodd;clip-rule:evenodd;fill:#D0C5CD;}
	.st7{fill-rule:evenodd;clip-rule:evenodd;fill:#A48E9E;}
	.st8{fill-rule:evenodd;clip-rule:evenodd;fill:#F4F2F4;}
	.st9{fill-rule:evenodd;clip-rule:evenodd;fill:#F9F9FB;}
	.st10{fill-rule:evenodd;clip-rule:evenodd;fill:#9C9EC2;}
	.st11{fill-rule:evenodd;clip-rule:evenodd;fill:#A0A8E0;}
	.st12{fill-rule:evenodd;clip-rule:evenodd;fill:#AB97A6;}
	.st13{fill-rule:evenodd;clip-rule:evenodd;fill:#989ABF;}
	.st14{fill-rule:evenodd;clip-rule:evenodd;fill:#947B8E;}
	.st15{fill-rule:evenodd;clip-rule:evenodd;fill:#B7B8D2;}
	.st16{fill-rule:evenodd;clip-rule:evenodd;fill:#B4A2AF;}
	.st17{fill-rule:evenodd;clip-rule:evenodd;fill:#BCBDD5;}
	.st18{fill-rule:evenodd;clip-rule:evenodd;fill:#907689;}
	.st19{fill-rule:evenodd;clip-rule:evenodd;fill:#8F7488;}
	.st20{fill-rule:evenodd;clip-rule:evenodd;fill:#E8E2E6;}
</style>
<g id="Capa_2">
	<path class="st0" d="M642.4,317.8c9.9-84.2-9-137-56.7-158.3c-71.5-32.1-226-44.9-306.4-114.4C198.9-24.5,19.5,29.3,16.1,148.6
		C12.7,268-1,452,311.9,452C520.6,452,630.8,407.3,642.4,317.8L642.4,317.8z"/>
	<path class="st1" d="M513.5,399.1c-109.4-4-177.9,23.2-205.7,81.4c-41.7,87.4-58.3,270.8-148.7,372.1
		c-90.4,101.3-20.5,308.1,134.6,301.2c155.1-7,394.1-7.6,394.1-377C687.8,530.6,629.7,404.7,513.5,399.1L513.5,399.1z"/>
	<path class="st2" d="M526.8,894.2c10.7-74.1-3.2-120.5-41.7-139.3c-57.7-28.2-184.1-39.5-248-100.7
		c-63.9-61.2-212.8-13.9-219.2,91.1c-6.4,105-23.3,266.9,233.6,266.9C422.7,1012.2,514.5,972.9,526.8,894.2L526.8,894.2z"/>
</g>
<g id="Capa_1">
	<g transform="translate(327.84,100.34) scale(1.3405) rotate(0)">
		<path class="st3" d="M-127.5,168.3c0.1-2-1.4-3.6-3.4-3.7c-2-0.1-3.6,1.4-3.7,3.4s1.4,3.6,3.4,3.7
			C-129.2,171.7-127.6,170.2-127.5,168.3z M-128.5,168.2c0.1-1.4-1-2.5-2.4-2.6c-1.4-0.1-2.5,1-2.6,2.4c-0.1,1.4,1,2.5,2.4,2.6
			C-129.8,170.6-128.6,169.6-128.5,168.2z"/>
	</g>
	<g transform="translate(403.43,100.1) scale(1.365) rotate(0)">
		<path class="st4" d="M-179.6,145.6c0.1-2-1.4-3.6-3.4-3.7c-2-0.1-3.6,1.4-3.7,3.4c-0.1,2,1.4,3.6,3.4,3.7
			C-181.3,149.1-179.7,147.6-179.6,145.6z M-180.6,145.6c0.1-1.4-1-2.5-2.4-2.6c-1.4-0.1-2.5,1-2.6,2.4c-0.1,1.4,1,2.5,2.4,2.6
			C-181.9,148-180.7,147-180.6,145.6z"/>
	</g>
	<g transform="translate(479.51,100.34) scale(1.3405) rotate(0)">
		<path class="st5" d="M-238.7,128c0.1-2-1.4-3.6-3.4-3.7c-2-0.1-3.6,1.4-3.7,3.4c-0.1,2,1.4,3.6,3.4,3.7
			C-240.5,131.5-238.8,129.9-238.7,128z M-239.8,127.9c0.1-1.4-1-2.5-2.4-2.6c-1.4-0.1-2.5,1-2.6,2.4c-0.1,1.4,1,2.5,2.4,2.6
			C-241,130.4-239.9,129.3-239.8,127.9z"/>
	</g>
	<g transform="translate(249.1,173.26) scale(1.6320000000000001) rotate(0)">
		<path class="st6" d="M-40,110.9c0.1-2-1.4-3.6-3.4-3.7c-2-0.1-3.6,1.4-3.7,3.4c-0.1,2,1.4,3.6,3.4,3.7
			C-41.8,114.4-40.1,112.8-40,110.9z M-41.1,110.8c0.1-1.4-1-2.5-2.4-2.6c-1.4-0.1-2.5,1-2.6,2.4s1,2.5,2.4,2.6
			C-42.3,113.3-41.2,112.2-41.1,110.8z"/>
	</g>
	<g transform="translate(322.02,170.35) scale(1.923) rotate(0)">
		<path class="st7" d="M-70.7,81.6c0.1-2-1.4-3.6-3.4-3.7c-2-0.1-3.6,1.4-3.7,3.4c-0.1,2,1.4,3.6,3.4,3.7
			C-72.5,85.1-70.8,83.6-70.7,81.6z M-71.8,81.5c0.1-1.4-1-2.5-2.4-2.6c-1.4-0.1-2.5,1-2.6,2.4c-0.1,1.4,1,2.5,2.4,2.6
			S-71.8,82.9-71.8,81.5z"/>
	</g>
	<g transform="translate(397.37,169.87) scale(1.9715) rotate(0)">
		<path class="st8" d="M-106.5,66.1c0.1-2-1.4-3.6-3.4-3.7c-2-0.1-3.6,1.4-3.7,3.4c-0.1,2,1.4,3.6,3.4,3.7
			C-108.2,69.6-106.5,68.1-106.5,66.1z M-107.5,66.1c0.1-1.4-1-2.5-2.4-2.6s-2.5,1-2.6,2.4c-0.1,1.4,1,2.5,2.4,2.6
			C-108.8,68.5-107.6,67.5-107.5,66.1z"/>
	</g>
	<g transform="translate(167.44,470.77) scale(2.2145) rotate(0)">
		<path class="st9" d="M31.4-93.2c-1.5-1.3-3.7-1.1-5,0.4c-1.3,1.5-1.1,3.7,0.4,5c1.5,1.3,3.7,1.1,5-0.4
			C33.1-89.7,32.9-91.9,31.4-93.2z M30.7-92.4c-1-0.9-2.6-0.8-3.5,0.3c-0.9,1-0.8,2.6,0.3,3.5c1,0.9,2.6,0.8,3.5-0.3
			S31.8-91.5,30.7-92.4z"/>
	</g>
	<g transform="translate(622.44,470.77) scale(2.2145) rotate(0)">
		<path class="st10" d="M-236.2-163.3c-1.5-1.3-3.7-1.1-5,0.4c-1.3,1.5-1.1,3.7,0.4,5c1.5,1.3,3.7,1.1,5-0.4
			C-234.5-159.8-234.7-162-236.2-163.3z M-236.9-162.5c-1-0.9-2.6-0.8-3.5,0.3c-0.9,1-0.8,2.6,0.3,3.5c1,0.9,2.6,0.8,3.5-0.3
			S-235.8-161.6-236.9-162.5z"/>
	</g>
	<g transform="translate(456.21,532.05) scale(3.6704999999999997) rotate(0)">
		<path class="st11" d="M-80.3-112.2c-1.5-1.3-3.7-1.1-5,0.4c-1.3,1.5-1.1,3.7,0.4,5c1.5,1.3,3.7,1.1,5-0.4
			C-78.7-108.7-78.8-110.9-80.3-112.2z M-81-111.4c-1-0.9-2.6-0.8-3.5,0.3c-0.9,1-0.8,2.6,0.3,3.5c1,0.9,2.6,0.8,3.5-0.3
			C-79.9-108.9-80-110.5-81-111.4z"/>
	</g>
	<g transform="translate(622.44,546.61) scale(2.2145) rotate(0)">
		<path class="st12" d="M-228.2-206.8c-1.5-1.3-3.7-1.1-5,0.4c-1.3,1.5-1.1,3.7,0.4,5c1.5,1.3,3.7,1.1,5-0.4
			C-226.5-203.3-226.7-205.5-228.2-206.8z M-228.9-206c-1-0.9-2.6-0.8-3.5,0.3s-0.8,2.6,0.3,3.5c1,0.9,2.6,0.8,3.5-0.3
			C-227.7-203.5-227.8-205.1-228.9-206z"/>
	</g>
	<g transform="translate(385.23,612.73) scale(3.185) rotate(0)">
		<path class="st13" d="M-58.7-155.1c-1.5-1.3-3.7-1.1-5,0.4c-1.3,1.5-1.1,3.7,0.4,5c1.5,1.3,3.7,1.1,5-0.4
			C-57-151.6-57.2-153.8-58.7-155.1z M-59.4-154.3c-1-0.9-2.6-0.8-3.5,0.3c-0.9,1-0.8,2.6,0.3,3.5c1,0.9,2.6,0.8,3.5-0.3
			C-58.2-151.8-58.3-153.4-59.4-154.3z"/>
	</g>
	<g transform="translate(244.73,699.73) scale(2.0685) rotate(0)">
		<path class="st14" d="M4.7-272.2c-1.5-1.3-3.7-1.1-5,0.4c-1.3,1.5-1.1,3.7,0.4,5c1.5,1.3,3.7,1.1,5-0.4
			C6.3-268.6,6.2-270.9,4.7-272.2z M4-271.4c-1-0.9-2.6-0.8-3.5,0.3c-0.9,1-0.8,2.6,0.3,3.5c1,0.9,2.6,0.8,3.5-0.3
			C5.1-268.9,5-270.5,4-271.4z"/>
	</g>
	<g transform="translate(479.51,858.68) scale(1.3405) rotate(0)">
		<path class="st15" d="M-188.5-607.2c-1.5-1.3-3.7-1.1-5,0.4c-1.3,1.5-1.1,3.7,0.4,5c1.5,1.3,3.7,1.1,5-0.4
			C-186.9-603.7-187-605.9-188.5-607.2z M-189.2-606.4c-1-0.9-2.6-0.8-3.5,0.3c-0.9,1-0.8,2.6,0.3,3.5c1,0.9,2.6,0.8,3.5-0.3
			C-188.1-603.9-188.2-605.5-189.2-606.4z"/>
	</g>
	<g transform="translate(327.84,100.34) scale(1.3405) rotate(0)">
		<path class="st3" d="M-146.6,481.8c1.3-1.5,1.1-3.7-0.4-5c-1.5-1.3-3.7-1.1-5,0.4c-1.3,1.5-1.1,3.7,0.4,5
			C-150.1,483.5-147.9,483.3-146.6,481.8z M-147.4,481.1c0.9-1,0.8-2.6-0.3-3.5s-2.6-0.8-3.5,0.3c-0.9,1-0.8,2.6,0.3,3.5
			C-149.9,482.3-148.3,482.2-147.4,481.1z"/>
	</g>
	<g transform="translate(249.1,173.26) scale(1.6320000000000001) rotate(0)">
		<path class="st6" d="M-70,374.9c1.3-1.5,1.1-3.7-0.4-5c-1.5-1.3-3.7-1.1-5,0.4c-1.3,1.5-1.1,3.7,0.4,5
			C-73.6,376.5-71.3,376.4-70,374.9z M-70.8,374.2c0.9-1,0.8-2.6-0.3-3.5c-1-0.9-2.6-0.8-3.5,0.3c-0.9,1-0.8,2.6,0.3,3.5
			C-73.3,375.3-71.7,375.2-70.8,374.2z"/>
	</g>
	<g transform="translate(322.02,170.35) scale(1.923) rotate(0)">
		<path class="st7" d="M-108,320.3c1.3-1.5,1.1-3.7-0.4-5c-1.5-1.3-3.7-1.1-5,0.4c-1.3,1.5-1.1,3.7,0.4,5
			C-111.5,322-109.3,321.8-108,320.3z M-108.8,319.6c0.9-1,0.8-2.6-0.3-3.5s-2.6-0.8-3.5,0.3c-0.9,1-0.8,2.6,0.3,3.5
			C-111.3,320.8-109.7,320.6-108.8,319.6z"/>
	</g>
	<g transform="translate(173.26,249.1) scale(1.6320000000000001) rotate(0)">
		<path class="st16" d="M-21.9,351.8c1.3-1.5,1.1-3.7-0.4-5c-1.5-1.3-3.7-1.1-5,0.4c-1.3,1.5-1.1,3.7,0.4,5
			C-25.4,353.4-23.2,353.3-21.9,351.8z M-22.7,351.1c0.9-1,0.8-2.6-0.3-3.5c-1-0.9-2.6-0.8-3.5,0.3c-0.9,1-0.8,2.6,0.3,3.5
			C-25.2,352.2-23.6,352.1-22.7,351.1z"/>
	</g>
	<g transform="translate(240.36,316.19) scale(2.5055) rotate(0)">
		<path class="st17" d="M-40.4,210.5c1.3-1.5,1.1-3.7-0.4-5c-1.5-1.3-3.7-1.1-5,0.4c-1.3,1.5-1.1,3.7,0.4,5
			C-44,212.1-41.7,212-40.4,210.5z M-41.3,209.8c0.9-1,0.8-2.6-0.3-3.5c-1-0.9-2.6-0.8-3.5,0.3c-0.9,1-0.8,2.6,0.3,3.5
			C-43.7,210.9-42.2,210.8-41.3,209.8z"/>
	</g>
	<g transform="translate(622.44,470.77) scale(2.2145) rotate(0)">
		<path class="st10" d="M-64.9,25c1.3-1.5,1.1-3.7-0.4-5c-1.5-1.3-3.7-1.1-5,0.4c-1.3,1.5-1.1,3.7,0.4,5
			C-68.5,26.6-66.2,26.5-64.9,25z M-65.7,24.3c0.9-1,0.8-2.6-0.3-3.5c-1-0.9-2.6-0.8-3.5,0.3c-0.9,1-0.8,2.6,0.3,3.5
			C-68.2,25.4-66.6,25.3-65.7,24.3z"/>
	</g>
	<g transform="translate(167.44,546.61) scale(2.2145) rotate(0)">
		<path class="st18" d="M175.4,33.3c1.3-1.5,1.1-3.7-0.4-5c-1.5-1.3-3.7-1.1-5,0.4c-1.3,1.5-1.1,3.7,0.4,5
			C171.8,35,174.1,34.8,175.4,33.3z M174.6,32.6c0.9-1,0.8-2.6-0.3-3.5s-2.6-0.8-3.5,0.3c-0.9,1-0.8,2.6,0.3,3.5
			C172.1,33.8,173.7,33.7,174.6,32.6z"/>
	</g>
	<g transform="translate(235.99,539.33) scale(2.9425) rotate(0)">
		<path class="st19" d="M122.5,167.3c1.3-1.5,1.1-3.7-0.4-5c-1.5-1.3-3.7-1.1-5,0.4c-1.3,1.5-1.1,3.7,0.4,5
			C119,169,121.2,168.8,122.5,167.3z M121.7,166.6c0.9-1,0.8-2.6-0.3-3.5s-2.6-0.8-3.5,0.3s-0.8,2.6,0.3,3.5
			C119.2,167.8,120.8,167.7,121.7,166.6z"/>
	</g>
	<g transform="translate(310.37,613.7) scale(3.088) rotate(0)">
		<path class="st20" d="M105.1,134.6c1.3-1.5,1.1-3.7-0.4-5c-1.5-1.3-3.7-1.1-5,0.4c-1.3,1.5-1.1,3.7,0.4,5
			C101.6,136.2,103.8,136.1,105.1,134.6z M104.3,133.9c0.9-1,0.8-2.6-0.3-3.5c-1-0.9-2.6-0.8-3.5,0.3c-0.9,1-0.8,2.6,0.3,3.5
			C101.8,135,103.4,134.9,104.3,133.9z"/>
	</g>
	<g transform="translate(385.23,612.73) scale(3.185) rotate(0)">
		<path class="st13" d="M84.1,124.4c1.3-1.5,1.1-3.7-0.4-5c-1.5-1.3-3.7-1.1-5,0.4c-1.3,1.5-1.1,3.7,0.4,5
			C80.5,126.1,82.8,125.9,84.1,124.4z M83.3,123.7c0.9-1,0.8-2.6-0.3-3.5c-1-0.9-2.6-0.8-3.5,0.3c-0.9,1-0.8,2.6,0.3,3.5
			C80.8,124.9,82.4,124.8,83.3,123.7z"/>
	</g>
	<g transform="translate(244.73,699.73) scale(2.0685) rotate(0)">
		<path class="st14" d="M188.7,176.6c1.3-1.5,1.1-3.7-0.4-5c-1.5-1.3-3.7-1.1-5,0.4c-1.3,1.5-1.1,3.7,0.4,5
			C185.1,178.3,187.4,178.1,188.7,176.6z M187.9,175.9c0.9-1,0.8-2.6-0.3-3.5c-1-0.9-2.6-0.8-3.5,0.3c-0.9,1-0.8,2.6,0.3,3.5
			C185.4,177.1,187,176.9,187.9,175.9z"/>
	</g>
	<g transform="translate(479.51,858.68) scale(1.3405) rotate(0)">
		<path class="st15" d="M123.5-177.7c1.3-1.5,1.1-3.7-0.4-5c-1.5-1.3-3.7-1.1-5,0.4c-1.3,1.5-1.1,3.7,0.4,5
			C119.9-176,122.2-176.2,123.5-177.7z M122.7-178.4c0.9-1,0.8-2.6-0.3-3.5c-1-0.9-2.6-0.8-3.5,0.3c-0.9,1-0.8,2.6,0.3,3.5
			C120.2-177.2,121.8-177.3,122.7-178.4z"/>
	</g>
	<g transform="translate(327.84,100.34) scale(1.3405) rotate(0)">
		<path class="st3" d="M-182.4,364.7c1.3-1.5,1.1-3.7-0.4-5c-1.5-1.3-3.7-1.1-5,0.4s-1.1,3.7,0.4,5S-183.7,366.2-182.4,364.7z
			 M-183.2,364c0.9-1,0.8-2.6-0.3-3.5c-1-0.9-2.6-0.8-3.5,0.3s-0.8,2.6,0.3,3.5S-184.1,365-183.2,364z"/>
	</g>
	<g transform="translate(403.43,100.1) scale(1.365) rotate(0)">
		<path class="st4" d="M-221.5,343.4c1.3-1.5,1.1-3.7-0.4-5c-1.5-1.3-3.7-1.1-5,0.4c-1.3,1.5-1.1,3.7,0.4,5
			S-222.8,344.9-221.5,343.4z M-222.3,342.7c0.9-1,0.8-2.6-0.3-3.5c-1-0.9-2.6-0.8-3.5,0.3s-0.8,2.6,0.3,3.5
			C-224.8,343.9-223.2,343.8-222.3,342.7z"/>
	</g>
	<g transform="translate(479.51,100.34) scale(1.3405) rotate(0)">
		<path class="st5" d="M-269.1,334.2c1.3-1.5,1.1-3.7-0.4-5c-1.5-1.3-3.7-1.1-5,0.4s-1.1,3.7,0.4,5
			C-272.7,335.9-270.4,335.7-269.1,334.2z M-269.9,333.5c0.9-1,0.8-2.6-0.3-3.5c-1-0.9-2.6-0.8-3.5,0.3c-0.9,1-0.8,2.6,0.3,3.5
			C-272.4,334.7-270.8,334.6-269.9,333.5z"/>
	</g>
	<g transform="translate(397.37,169.87) scale(1.9715) rotate(0)">
		<path class="st8" d="M-139.1,212.1c1.3-1.5,1.1-3.7-0.4-5c-1.5-1.3-3.7-1.1-5,0.4c-1.3,1.5-1.1,3.7,0.4,5
			C-142.6,213.7-140.4,213.6-139.1,212.1z M-139.9,211.4c0.9-1,0.8-2.6-0.3-3.5c-1-0.9-2.6-0.8-3.5,0.3c-0.9,1-0.8,2.6,0.3,3.5
			C-142.4,212.5-140.8,212.4-139.9,211.4z"/>
	</g>
	<g transform="translate(327.84,100.34) scale(1.3405) rotate(0)">
		<path class="st3" d="M171.9,82.7c1.3-1.5,1.1-3.7-0.4-5c-1.5-1.3-3.7-1.1-5,0.4c-1.3,1.5-1.1,3.7,0.4,5
			C168.4,84.4,170.6,84.2,171.9,82.7z M171.1,82c0.9-1,0.8-2.6-0.3-3.5c-1-0.9-2.6-0.8-3.5,0.3c-0.9,1-0.8,2.6,0.3,3.5
			C168.7,83.2,170.2,83.1,171.1,82z"/>
	</g>
	<g transform="translate(403.43,100.1) scale(1.365) rotate(0)">
		<path class="st4" d="M126.5,66.5c1.3-1.5,1.1-3.7-0.4-5c-1.5-1.3-3.7-1.1-5,0.4c-1.3,1.5-1.1,3.7,0.4,5
			C123,68.1,125.2,68,126.5,66.5z M125.7,65.8c0.9-1,0.8-2.6-0.3-3.5c-1-0.9-2.6-0.8-3.5,0.3c-0.9,1-0.8,2.6,0.3,3.5
			C123.2,66.9,124.8,66.8,125.7,65.8z"/>
	</g>
	<g transform="translate(479.51,100.34) scale(1.3405) rotate(0)">
		<path class="st5" d="M85.2,52.2c1.3-1.5,1.1-3.7-0.4-5c-1.5-1.3-3.7-1.1-5,0.4c-1.3,1.5-1.1,3.7,0.4,5
			C81.7,53.9,83.9,53.7,85.2,52.2z M84.4,51.5c0.9-1,0.8-2.6-0.3-3.5s-2.6-0.8-3.5,0.3s-0.8,2.6,0.3,3.5S83.5,52.6,84.4,51.5z"/>
	</g>
	<g transform="translate(322.02,170.35) scale(1.923) rotate(0)">
		<path class="st7" d="M134.3,31.2c1.3-1.5,1.1-3.7-0.4-5c-1.5-1.3-3.7-1.1-5,0.4c-1.3,1.5-1.1,3.7,0.4,5
			C130.8,32.8,133,32.7,134.3,31.2z M133.5,30.5c0.9-1,0.8-2.6-0.3-3.5c-1-0.9-2.6-0.8-3.5,0.3c-0.9,1-0.8,2.6,0.3,3.5
			S132.6,31.5,133.5,30.5z"/>
	</g>
	<g transform="translate(397.37,169.87) scale(1.9715) rotate(0)">
		<path class="st8" d="M101.8,20.3c1.3-1.5,1.1-3.7-0.4-5c-1.5-1.3-3.7-1.1-5,0.4c-1.3,1.5-1.1,3.7,0.4,5
			C98.3,22,100.6,21.8,101.8,20.3z M101,19.6c0.9-1,0.8-2.6-0.3-3.5c-1-0.9-2.6-0.8-3.5,0.3c-0.9,1-0.8,2.6,0.3,3.5
			C98.6,20.8,100.1,20.7,101,19.6z"/>
	</g>
	<g transform="translate(240.36,316.19) scale(2.5055) rotate(0)">
		<path class="st17" d="M145.5-11.4c1.3-1.5,1.1-3.7-0.4-5c-1.5-1.3-3.7-1.1-5,0.4c-1.3,1.5-1.1,3.7,0.4,5
			C142-9.8,144.3-10,145.5-11.4z M144.7-12.1c0.9-1,0.8-2.6-0.3-3.5c-1-0.9-2.6-0.8-3.5,0.3c-0.9,1-0.8,2.6,0.3,3.5
			C142.3-11,143.8-11.1,144.7-12.1z"/>
	</g>
	<g transform="translate(327.84,100.34) scale(1.3405) rotate(0)">
		<path class="st3" d="M-166,734c1.3-1.5,1.1-3.7-0.4-5c-1.5-1.3-3.7-1.1-5,0.4c-1.3,1.5-1.1,3.7,0.4,5S-167.3,735.5-166,734z
			 M-166.8,733.3c0.9-1,0.8-2.6-0.3-3.5c-1-0.9-2.6-0.8-3.5,0.3c-0.9,1-0.8,2.6,0.3,3.5S-167.7,734.3-166.8,733.3z"/>
	</g>
	<g transform="translate(403.43,100.1) scale(1.365) rotate(0)">
		<path class="st4" d="M-205.4,706c1.3-1.5,1.1-3.7-0.4-5c-1.5-1.3-3.7-1.1-5,0.4c-1.3,1.5-1.1,3.7,0.4,5
			C-208.9,707.7-206.7,707.5-205.4,706z M-206.2,705.3c0.9-1,0.8-2.6-0.3-3.5s-2.6-0.8-3.5,0.3c-0.9,1-0.8,2.6,0.3,3.5
			S-207.1,706.4-206.2,705.3z"/>
	</g>
	<g transform="translate(479.51,100.34) scale(1.3405) rotate(0)">
		<path class="st5" d="M-252.7,703.5c1.3-1.5,1.1-3.7-0.4-5c-1.5-1.3-3.7-1.1-5,0.4c-1.3,1.5-1.1,3.7,0.4,5
			C-256.3,705.1-254,705-252.7,703.5z M-253.5,702.8c0.9-1,0.8-2.6-0.3-3.5c-1-0.9-2.6-0.8-3.5,0.3c-0.9,1-0.8,2.6,0.3,3.5
			C-256,703.9-254.4,703.8-253.5,702.8z"/>
	</g>
	<g transform="translate(249.1,173.26) scale(1.6320000000000001) rotate(0)">
		<path class="st6" d="M-86,582c1.3-1.5,1.1-3.7-0.4-5c-1.5-1.3-3.7-1.1-5,0.4c-1.3,1.5-1.1,3.7,0.4,5
			C-89.5,583.6-87.2,583.5-86,582z M-86.8,581.3c0.9-1,0.8-2.6-0.3-3.5s-2.6-0.8-3.5,0.3c-0.9,1-0.8,2.6,0.3,3.5
			S-87.7,582.3-86.8,581.3z"/>
	</g>
	<g transform="translate(322.02,170.35) scale(1.923) rotate(0)">
		<path class="st7" d="M-101.2,485.2c1.3-1.5,1.1-3.7-0.4-5c-1.5-1.3-3.7-1.1-5,0.4c-1.3,1.5-1.1,3.7,0.4,5
			C-104.8,486.8-102.5,486.6-101.2,485.2z M-102.1,484.5c0.9-1,0.8-2.6-0.3-3.5c-1-0.9-2.6-0.8-3.5,0.3c-0.9,1-0.8,2.6,0.3,3.5
			C-104.5,485.6-103,485.5-102.1,484.5z"/>
	</g>
	<g transform="translate(397.37,169.87) scale(1.9715) rotate(0)">
		<path class="st8" d="M-127.9,463.2c1.3-1.5,1.1-3.7-0.4-5c-1.5-1.3-3.7-1.1-5,0.4c-1.3,1.5-1.1,3.7,0.4,5
			C-131.5,464.8-129.2,464.6-127.9,463.2z M-128.7,462.5c0.9-1,0.8-2.6-0.3-3.5s-2.6-0.8-3.5,0.3c-0.9,1-0.8,2.6,0.3,3.5
			C-131.2,463.6-129.6,463.5-128.7,462.5z"/>
	</g>
	<g transform="translate(173.26,249.1) scale(1.6320000000000001) rotate(0)">
		<path class="st16" d="M-4.7,535c1.3-1.5,1.1-3.7-0.4-5c-1.5-1.3-3.7-1.1-5,0.4c-1.3,1.5-1.1,3.7,0.4,5C-8.3,536.6-6,536.5-4.7,535
			z M-5.5,534.3c0.9-1,0.8-2.6-0.3-3.5c-1-0.9-2.6-0.8-3.5,0.3c-0.9,1-0.8,2.6,0.3,3.5C-8,535.4-6.4,535.3-5.5,534.3z"/>
	</g>
	<g transform="translate(240.36,316.19) scale(2.5055) rotate(0)">
		<path class="st17" d="M-13.7,321.4c1.3-1.5,1.1-3.7-0.4-5c-1.5-1.3-3.7-1.1-5,0.4c-1.3,1.5-1.1,3.7,0.4,5
			C-17.2,323.1-15,322.9-13.7,321.4z M-14.5,320.7c0.9-1,0.8-2.6-0.3-3.5c-1-0.9-2.6-0.8-3.5,0.3c-0.9,1-0.8,2.6,0.3,3.5
			C-17,321.9-15.4,321.8-14.5,320.7z"/>
	</g>
	<g transform="translate(479.51,100.34) scale(1.3405) rotate(0)">
		<path class="st5" d="M96.4,407.3c1.3-1.5,1.1-3.7-0.4-5c-1.5-1.3-3.7-1.1-5,0.4c-1.3,1.5-1.1,3.7,0.4,5
			C92.9,409,95.1,408.8,96.4,407.3z M95.6,406.6c0.9-1,0.8-2.6-0.3-3.5c-1-0.9-2.6-0.8-3.5,0.3c-0.9,1-0.8,2.6,0.3,3.5
			C93.1,407.8,94.7,407.7,95.6,406.6z"/>
	</g>
</g>
</svg>
