<?xml version="1.0" encoding="utf-8"?>
<!-- Generator: Adobe Illustrator 23.0.2, SVG Export Plug-In . SVG Version: 6.00 Build 0)  -->
<svg version="1.1" id="Capa_1" xmlns="http://www.w3.org/2000/svg" xmlns:xlink="http://www.w3.org/1999/xlink" x="0px" y="0px"
	 viewBox="0 0 141.2 35.9" style="enable-background:new 0 0 141.2 35.9;" xml:space="preserve">
<style type="text/css">
	.st0{fill:#FFFFFF;stroke:#3D3D3C;stroke-width:0.96;stroke-linecap:round;stroke-linejoin:round;}
	.st1{fill:#F5F6F7;stroke:#3D3D3C;stroke-width:0.96;stroke-linecap:round;stroke-linejoin:round;}
	.st2{fill:#3782FF;stroke:#3D3D3C;stroke-width:0.96;stroke-linecap:round;stroke-linejoin:round;}
	.st3{fill:#F5F6F7;}
</style>
<title>circleSeparator</title>
<g>
	<path class="st0" d="M7.4,0.2L133.8,0c4,0,7.4,3.3,7.4,7.4l0,21c0,4-3.3,7.4-7.4,7.4L7.4,36c-4,0-7.4-3.3-7.4-7.4L0,7.5
		C0,3.5,3.3,0.2,7.4,0.2z"/>
	<path class="st1" d="M44.6,9.5l77.2-0.1c1.1,0,2,0.9,2,2l0,1.6c0,1.1-0.9,2-2,2l-77.2,0.1c-1.1,0-2-0.9-2-2l0-1.6
		C42.5,10.4,43.4,9.5,44.6,9.5z"/>
	<path class="st1" d="M44.5,22.3l25.7,0c1.1,0,2,0.9,2,2l0,1.5c0,1.1-0.9,2-2,2l-25.7,0c-1.1,0-2-0.9-2-2l0-1.5
		C42.6,23.3,43.4,22.3,44.5,22.3z"/>
	<path class="st1" d="M77.6,22.3l25.7,0c1.1,0,2,0.9,2,2l0,1.5c0,1.1-0.9,2-2,2l-25.7,0c-1.1,0-2-0.9-2-2l0-1.5
		C75.5,23.2,76.4,22.3,77.6,22.3z"/>
	<path class="st2" d="M21.6,25.1c-0.5,0-1.1-0.2-1.5-0.5l-7.4-6.8c-0.9-0.8-1-2.2-0.1-3.1c0.8-0.9,2.2-1,3.1-0.1l5.9,5.4l10.4-9.9
		c0.8-0.9,2.2-0.8,3.1,0.1c0.9,0.8,0.8,2.2-0.1,3.1L23,24.8C22.8,24.9,22.2,25.1,21.6,25.1z"/>
	<path class="st3" d="M19.9,6.9l-1,1.1L19.9,6.9z"/>
</g>
</svg>
