<?xml version="1.0" encoding="utf-8"?>
<!-- Generator: Adobe Illustrator 23.0.2, SVG Export Plug-In . SVG Version: 6.00 Build 0)  -->
<svg version="1.1" id="Capa_1" xmlns="http://www.w3.org/2000/svg" xmlns:xlink="http://www.w3.org/1999/xlink" x="0px" y="0px"
	 viewBox="0 0 272.2 186.7" style="enable-background:new 0 0 272.2 186.7;" xml:space="preserve">
<style type="text/css">
	.st0{fill:none;stroke:#554A8E;stroke-miterlimit:10;}
	.st1{fill-rule:evenodd;clip-rule:evenodd;fill:#43478B;}
	.st2{fill-rule:evenodd;clip-rule:evenodd;fill:#977E91;}
	.st3{fill-rule:evenodd;clip-rule:evenodd;fill:#F4F2F4;}
	.st4{fill-rule:evenodd;clip-rule:evenodd;fill:#BCBDD5;}
	.st5{fill:#FFFFFF;stroke:#3D3D3C;stroke-width:0.96;stroke-linecap:round;stroke-linejoin:round;}
	.st6{fill:#4F4F5B;}
	.st7{fill:none;stroke:#3D3D3C;stroke-width:0.96;stroke-linecap:round;stroke-linejoin:round;}
	.st8{fill:#3782FF;stroke:#3D3D3C;stroke-width:0.96;stroke-linecap:round;stroke-linejoin:round;}
</style>
<title>circleSeparator</title>
<g>
	<path class="st0" d="M112.1,35.3C31.8,61.2-4.1,89.4,4.2,120.1l0,0c8.2,28.8,39.8,37.8,61.2,38.8c32.1,1.6,177.5-27.2,203.3,27.7
		 M251.1,151.7c-36.8-36.5-229,46.4-242.6-34.8l0.1,0.1c-6.4-29.6,28.4-56.6,104.3-81"/>
</g>
<path class="st1" d="M58,162.5c-1.7-1.9-4.4-1.9-6.1-0.2c-1.7,1.8-1.8,4.7-0.2,6.6c1.7,1.9,4.4,1.9,6.1,0.2c0,0,0,0,0,0
	C59.5,167.3,59.6,164.3,58,162.5C58,162.5,58,162.5,58,162.5z M57,163.4c-1.2-1.3-3.1-1.4-4.3-0.1c-1.2,1.2-1.3,3.3-0.1,4.6
	c1.2,1.3,3.1,1.4,4.3,0.1c0,0,0,0,0,0C58.1,166.8,58.2,164.7,57,163.4z"/>
<path class="st2" d="M41.3,143.8c-1.6-1.8-4.3-1.9-6-0.2c-1.7,1.7-1.8,4.6-0.2,6.5c1.6,1.8,4.3,1.9,6,0.2c0,0,0,0,0,0
	C42.8,148.6,42.9,145.7,41.3,143.8C41.3,143.9,41.3,143.9,41.3,143.8z M40.4,144.8c-1.1-1.3-3-1.3-4.2-0.1c-1.2,1.2-1.2,3.2-0.1,4.5
	c1.1,1.3,3,1.3,4.2,0.1c0,0,0,0,0,0C41.5,148.1,41.5,146.1,40.4,144.8C40.3,144.8,40.3,144.8,40.4,144.8L40.4,144.8z"/>
<path class="st3" d="M76.8,143.3c-2.4-2.7-6.3-2.8-8.8-0.2c-2.5,2.6-2.6,6.8-0.2,9.4c2.4,2.6,6.3,2.8,8.8,0.2
	C79.1,150.2,79.2,146,76.8,143.3C76.9,143.3,76.8,143.3,76.8,143.3z M75.5,144.7c-1.7-1.9-4.5-2-6.2-0.2s-1.8,4.8-0.2,6.6
	c1.7,1.9,4.5,2,6.2,0.2c0,0,0,0,0,0C77.1,149.5,77.1,146.5,75.5,144.7L75.5,144.7z"/>
<path class="st4" d="M146.3,143.8c-3-3.4-8.1-3.5-11.3-0.3c-3.2,3.3-3.3,8.6-0.3,12.1c3,3.4,8.1,3.5,11.3,0.3
	C149.2,152.6,149.3,147.2,146.3,143.8z M144.6,145.6c-2.1-2.4-5.7-2.5-7.9-0.2c-2.2,2.3-2.3,6-0.2,8.4c2.1,2.4,5.7,2.5,7.9,0.2
	C146.6,151.7,146.7,148,144.6,145.6C144.6,145.6,144.6,145.6,144.6,145.6L144.6,145.6z"/>
<path class="st5" d="M102.8,21.2L81.2,32.1l-1.4-21.2L101.4,0L102.8,21.2z"/>
<path class="st6" d="M102.8,21.2L117,35.3L95.5,46.1L81.2,32.1L102.8,21.2z"/>
<path class="st7" d="M102.8,21.2L117,35.3L95.5,46.1L81.2,32.1L102.8,21.2z"/>
<path class="st8" d="M101.4,0l14.2,14.1l1.4,21.2l-14.2-14.1L101.4,0z"/>
</svg>
