<?xml version="1.0" encoding="utf-8"?>
<!-- Generator: Adobe Illustrator 23.0.2, SVG Export Plug-In . SVG Version: 6.00 Build 0)  -->
<svg version="1.1" id="Capa_1" xmlns="http://www.w3.org/2000/svg" xmlns:xlink="http://www.w3.org/1999/xlink" x="0px" y="0px"
	 viewBox="0 0 792.1 357" style="enable-background:new 0 0 792.1 357;" xml:space="preserve">
<style type="text/css">
	.st0{fill:#8E8EE8;}
	.st1{fill:#A78FC6;}
</style>
<g>
	<path class="st0" d="M6.7,107.8c6.7,94.4,7.4,240,364.5,240c238.1,0,359.8-35.4,365.2-106.1h0c0.6-10,0.5-19.4-0.3-28.3
		c-0.7,7.7-2.1,15.8-4.2,24.4h0C715.2,300.6,590.1,342,359.4,342c-346,0-350.6-176-342-260C25.2,7,217.8,6.3,312.6,33l-14.8-7.1
		C259.3,4.2,205-2.3,153.6,3.4c-19.2,2.2-37.9,6-55.2,11.5C44.2,32,3.6,64.4,6.7,107.8z"/>
	<path class="st0" d="M722.4,94.3c-9.9-6.6-21.3-12-34.5-15.9C615.1,56.5,443.1,84,342.6,46.3c86.4,48.5,285.9,19.5,363.4,42
		C711.9,90,717.3,92,722.4,94.3z"/>
	<path class="st1" d="M710.4,70c-91.7-26.1-282.8,11.9-385.8-44.8C281.3,1.3,215.6-4.7,153.6,3.4C205-2.3,259.3,4.2,297.8,25.9
		c4.1,2.3,8.4,4.6,12.8,6.7c1.6,0.8,6.4,2.9,8.1,3.4c9.8,3.1,15.6,5.5,23.6,10.2c0.1,0,0.1,0.1,0.2,0.1
		C443.1,84,619.2,59.5,692,81.4c13.1,3.9,24.6,9.3,34.5,15.9c41.9,45.7,13,76.9,9.5,116c0.8,8.9,0.9,18.3,0.3,28.3h0
		c-5.4,70.8-127.1,106.1-365.2,106.1c-357.1,0-357.7-145.5-364.5-240C3.6,64.4,44.2,32,98.4,14.9C37.1,32.7-3,58.2,0.2,102
		c6.1,84-34.8,255,366.2,255c267.3,0,408.4-36.5,423.4-109.4h0C802.4,178.9,771.5,87.4,710.4,70z"/>
</g>
</svg>
