<?xml version="1.0" encoding="utf-8"?>
<!-- Generator: Adobe Illustrator 23.0.2, SVG Export Plug-In . SVG Version: 6.00 Build 0)  -->
<svg version="1.1" id="Capa_1" xmlns="http://www.w3.org/2000/svg" xmlns:xlink="http://www.w3.org/1999/xlink" x="0px" y="0px"
	 viewBox="0 0 807.5 357.8" style="enable-background:new 0 0 807.5 357.8;" xml:space="preserve">
<style type="text/css">
	.st0{fill:#8E8EE8;}
	.st1{fill:#A78FC6;}
</style>
<g>
	<path class="st0" d="M27.4,108.3c6.6,94.4,7.3,240,358.1,240c233.9,0,353.5-35.4,358.8-106.1h0c0.6-10,0.4-19.4-0.3-28.3
		c-0.7,7.7-2,15.8-4.1,24.4h0c-16.3,62.9-137.8,94.4-364.4,94.4c-340,0-338-146.1-329.5-230.1c7.6-75,188.8-95.7,282-69l-14.5-7.1
		C275.6,4.7,222.2-1.9,171.8,3.9c-18.8,2.2-37.2,6-54.3,11.5C64.2,32.4,24.4,64.9,27.4,108.3z"/>
	<path class="st0" d="M717.8,117.8c-9.7-6.6-21-12-33.9-15.9C612.4,80,456.2,84.4,357.4,46.7c84.9,48.5,268.1,42.5,344.3,65
		C707.5,113.5,712.9,115.5,717.8,117.8z"/>
	<path class="st1" d="M710,94.5c-90.1-26.1-269-12.1-370.3-68.8C297.2,1.8,232.6-4.3,171.8,3.9c50.4-5.8,103.8,0.8,141.7,22.4
		c4.1,2.3,8.3,4.6,12.6,6.7c1.5,0.8,6.3,2.9,8,3.4c9.6,3.1,15.3,5.5,23.2,10.2c0.1,0,0.1,0.1,0.2,0.1c98.7,37.7,263,37.3,334.5,59.1
		c12.9,3.9,24.2,9.3,33.9,15.9c41.2,45.7,21.7,52.9,18.2,92c0.8,8.9,0.9,18.3,0.3,28.3h0c-5.3,70.8-124.9,106.1-358.8,106.1
		c-350.8,0-351.5-145.5-358.1-240c-3-43.4,36.8-75.8,90.1-92.9C57.3,33.2,10.3,66.2,8.4,110.1c-4.2,97.3-21.5,247.4,372.4,247.4
		c262.6,0,401.3-36.5,416-109.4h0C809.3,179.4,770,111.9,710,94.5z"/>
</g>
</svg>
