<?xml version="1.0" encoding="utf-8"?>
<!-- Generator: Adobe Illustrator 23.0.2, SVG Export Plug-In . SVG Version: 6.00 Build 0)  -->
<svg version="1.1" id="Capa_1" xmlns="http://www.w3.org/2000/svg" xmlns:xlink="http://www.w3.org/1999/xlink" x="0px" y="0px"
	 viewBox="0 0 538.1 718" style="enable-background:new 0 0 538.1 718;" xml:space="preserve">
<style type="text/css">
	.st0{fill:#8E8EE8;}
	.st1{fill:#A78FC6;}
</style>
<g>
	<path class="st0" d="M4.5,216.8c4.6,189.9,5,482.6,247.5,482.6c161.7,0,244.4-71.1,248-213.4h0c0.4-20.1,0.3-39.1-0.2-57
		c-0.5,15.4-1.4,31.8-2.8,49.1h0c-11.3,126.6-96.3,209.8-252.9,209.8c-235,0-238.1-354-232.3-522.9C17.1,14,147.9,12.6,212.3,66.4
		l-10-14.4C176.1,8.5,139.2-4.7,104.4,6.9c-13,4.3-25.7,12.1-37.5,23.1C30,64.3,2.4,129.5,4.5,216.8z"/>
	<path class="st0" d="M481.8,235.9c-6.7-13.4-14.5-24-23.4-32c-49.4-44-157.5-35-225.7-110.9c58.7,97.5,185.4,85.5,238,130.8
		C474.7,227.2,478.4,231.3,481.8,235.9z"/>
	<path class="st1" d="M476.4,189c-62.3-52.6-186-24.4-256-138.4C191,2.7,146.4-9.5,104.4,6.9c34.9-11.6,71.8,1.5,97.9,45.1
		c2.8,4.7,5.7,9.2,8.7,13.5c1.1,1.5,4.4,5.8,5.5,6.9c6.7,6.3,10.6,11.1,16.1,20.5c0,0.1,0.1,0.1,0.1,0.2
		c68.3,75.8,181.8,74.9,231.2,118.9c8.9,7.9,16.7,18.6,23.4,32c28.5,92,15,106.3,12.6,185.1c0.5,17.9,0.6,36.8,0.2,57h0
		c-3.7,142.3-86.4,213.4-248,213.4C9.6,699.4,9.1,406.7,4.5,216.8C2.4,129.5,30,64.3,66.8,30C25.2,65.9-2,117,0.1,205.1
		C4.3,374.1-23.5,718,248.8,718c181.5,0,277.4-73.3,287.6-220h0C545,359.9,517.9,224.1,476.4,189z"/>
</g>
</svg>
