<svg id="Capa_1" data-name="Capa 1" xmlns="http://www.w3.org/2000/svg" xmlns:xlink="http://www.w3.org/1999/xlink" viewBox="0 0 303.61 250.17"><defs><style>.cls-1,.cls-19{fill:#fff;}.cls-1,.cls-10,.cls-11,.cls-12,.cls-13,.cls-14,.cls-15,.cls-16,.cls-17,.cls-18,.cls-9{fill-rule:evenodd;}.cls-2{fill:#fffa72;}.cls-3{fill:#151a80;}.cls-4{fill:#2a2a84;}.cls-5{fill:#403a89;}.cls-6{fill:#554a8e;}.cls-7{fill:#6a5a92;}.cls-8{fill:#806a97;}.cls-9{fill:#ccc0c9;}.cls-10{fill:#43478b;}.cls-11{fill:#977e91;}.cls-12{fill:#d0c5cd;}.cls-13{fill:#a48e9e;}.cls-14{fill:#f4f2f4;}.cls-15{fill:#b4a2af;}.cls-16{fill:#bcbdd5;}.cls-17{fill:#a691a0;}.cls-18{fill:#f9f9fb;}.cls-19,.cls-23,.cls-24{stroke:#3d3d3c;stroke-linecap:round;stroke-linejoin:round;stroke-width:0.96px;}.cls-20{fill:#4f4f5b;}.cls-21{mask:url(#mask);}.cls-22{fill:#f5f6f7;}.cls-23{fill:none;}.cls-24{fill:#3782ff;}</style><mask id="mask" x="70.72" y="100.65" width="61.86" height="32.78" maskUnits="userSpaceOnUse"><g transform="translate(-6.2 0.21)"><g id="mask0_0_1230" data-name="mask0 0 1230"><path class="cls-1" d="M111.78,103.76l16.13,14.51-24,11.64L87.8,115.39Z"/></g></g></mask></defs><title>circleSeparator</title><path class="cls-2" d="M231.37,227.86q10.4-12.83.62-18.5c-9.76-5.68-34.39-12-43.27-21.9s-41.81-10-49.88,2.44-21.91,31.39,29.64,41.46q51.56,10.06,62.89-3.5Z" transform="translate(-6.2 0.21)"/><path class="cls-3" d="M309.62,223.59q2.67-41.06-31.4-58.26c-34.06-17.21-105.7-35.42-145.11-66s-120.38-28.7-118,11.07,2.15,100.3,146.49,128.48q144.35,28.19,148-15.28Z" transform="translate(-6.2 0.21)"/><path class="cls-4" d="M303.72,224.07q5-38.38-26.63-54.54c-31.61-16.16-99.16-33.35-135.11-62S28.36,80.39,28.3,117.58,24.42,211.35,161,238q136.6,26.67,142.68-14Z" transform="translate(-6.2 0.21)"/><path class="cls-5" d="M297.68,224.52q6.92-35.78-22.34-50.91c-29.26-15.14-92.77-31.31-125.45-58.14S43,90,40.82,124.63s-9,87.43,119.89,112.59q128.88,25.16,137-12.7Z" transform="translate(-6.2 0.21)"/><path class="cls-6" d="M291.51,224.94Q300,191.7,273,177.58c-27-14.13-86.49-29.29-116.11-54.29S56.66,99.35,52.74,131.57s-13.25,81.24,107.89,104.9q121.16,23.64,130.88-11.53Z" transform="translate(-6.2 0.21)"/><path class="cls-7" d="M285.22,225.34q9.76-30.76-15.05-43.9c-24.81-13.14-80.32-27.29-107.06-50.5s-93.62-22.36-99,7.47-16.76,75.2,96.66,97.35Q274.2,257.9,285.22,225.34Z" transform="translate(-6.2 0.21)"/><path class="cls-8" d="M278.81,225.72q10.74-28.35-12-40.51c-22.7-12.16-74.26-25.32-98.28-46.77s-87-20.8-93.58,6.7-19.54,69.31,86.15,90q105.68,20.63,117.68-9.37Z" transform="translate(-6.2 0.21)"/><path class="cls-9" d="M101.89,190a4.78,4.78,0,1,0-.16,6.76A4.77,4.77,0,0,0,101.89,190Zm-1,1a3.34,3.34,0,1,0-.11,4.73A3.35,3.35,0,0,0,100.85,191Z" transform="translate(-6.2 0.21)"/><path class="cls-10" d="M83.32,170.33a4.87,4.87,0,1,0-.17,6.88A4.86,4.86,0,0,0,83.32,170.33Zm-1.06,1a3.41,3.41,0,1,0-.12,4.82A3.41,3.41,0,0,0,82.26,171.33Z" transform="translate(-6.2 0.21)"/><path class="cls-11" d="M64.61,150.81a4.78,4.78,0,1,0-.16,6.75A4.76,4.76,0,0,0,64.61,150.81Zm-1,1a3.35,3.35,0,1,0-.11,4.73A3.35,3.35,0,0,0,63.57,151.79Z" transform="translate(-6.2 0.21)"/><path class="cls-12" d="M140.87,190.2a5.82,5.82,0,1,0-.21,8.22A5.83,5.83,0,0,0,140.87,190.2Zm-1.27,1.2a4.07,4.07,0,1,0-.14,5.76A4.08,4.08,0,0,0,139.6,191.4Z" transform="translate(-6.2 0.21)"/><path class="cls-13" d="M123,169.9a6.85,6.85,0,1,0-.24,9.69A6.86,6.86,0,0,0,123,169.9Zm-1.49,1.42a4.8,4.8,0,1,0-.17,6.78A4.8,4.8,0,0,0,121.49,171.32Z" transform="translate(-6.2 0.21)"/><path class="cls-14" d="M104.47,150.19a7,7,0,1,0-.25,9.94A7,7,0,0,0,104.47,150.19Zm-1.53,1.46a4.92,4.92,0,1,0-.17,6.95A4.92,4.92,0,0,0,102.94,151.65Z" transform="translate(-6.2 0.21)"/><path class="cls-15" d="M179.09,191.14a5.82,5.82,0,1,0-.2,8.22A5.8,5.8,0,0,0,179.09,191.14Zm-1.26,1.2a4.07,4.07,0,1,0-.14,5.76A4.08,4.08,0,0,0,177.83,192.34Z" transform="translate(-6.2 0.21)"/><path class="cls-16" d="M182.29,150.77A8.93,8.93,0,1,0,182,163.4,8.94,8.94,0,0,0,182.29,150.77Zm-1.94,1.85a6.25,6.25,0,1,0-.22,8.84A6.25,6.25,0,0,0,180.35,152.62Z" transform="translate(-6.2 0.21)"/><path class="cls-17" d="M67.44,36.14a4.78,4.78,0,1,0-.17,6.75A4.78,4.78,0,0,0,67.44,36.14Zm-1,1a3.35,3.35,0,1,0-.12,4.72A3.34,3.34,0,0,0,66.4,37.13Z" transform="translate(-6.2 0.21)"/><path class="cls-18" d="M239.34,133.79a7.89,7.89,0,1,0-.27,11.16A7.89,7.89,0,0,0,239.34,133.79Zm-1.71,1.63a5.53,5.53,0,1,0-.19,7.81A5.53,5.53,0,0,0,237.63,135.42Z" transform="translate(-6.2 0.21)"/><path class="cls-19" d="M112,103.81,87.82,115.13,86.26,92.88l24.13-11.33Z" transform="translate(-6.2 0.21)"/><path class="cls-20" d="M112,103.81l15.94,14.72-24.13,11.32L87.82,115.13Z" transform="translate(-6.2 0.21)"/><g class="cls-21"><path class="cls-22" d="M77.4,127.86l58.66,4.88Z" transform="translate(-6.2 0.21)"/><path class="cls-23" d="M77.4,127.86l58.66,4.88" transform="translate(-6.2 0.21)"/><path class="cls-22" d="M77.59,125.62l58.66,4.88Z" transform="translate(-6.2 0.21)"/><path class="cls-23" d="M77.59,125.62l58.66,4.88" transform="translate(-6.2 0.21)"/><path class="cls-22" d="M77.78,123.37l58.65,4.88Z" transform="translate(-6.2 0.21)"/><path class="cls-23" d="M77.78,123.37l58.65,4.88" transform="translate(-6.2 0.21)"/><path class="cls-22" d="M78,121.13,136.62,126Z" transform="translate(-6.2 0.21)"/><path class="cls-23" d="M78,121.13,136.62,126" transform="translate(-6.2 0.21)"/><path class="cls-22" d="M78.15,118.88l58.66,4.88Z" transform="translate(-6.2 0.21)"/><path class="cls-23" d="M78.15,118.88l58.66,4.88" transform="translate(-6.2 0.21)"/><path class="cls-22" d="M78.34,116.64,137,121.52Z" transform="translate(-6.2 0.21)"/><path class="cls-23" d="M78.34,116.64,137,121.52" transform="translate(-6.2 0.21)"/><path class="cls-22" d="M78.52,114.39l58.66,4.88Z" transform="translate(-6.2 0.21)"/><path class="cls-23" d="M78.52,114.39l58.66,4.88" transform="translate(-6.2 0.21)"/><path class="cls-22" d="M78.71,112.15,137.37,117Z" transform="translate(-6.2 0.21)"/><path class="cls-23" d="M78.71,112.15,137.37,117" transform="translate(-6.2 0.21)"/><path class="cls-22" d="M78.9,109.9l58.66,4.88Z" transform="translate(-6.2 0.21)"/><path class="cls-23" d="M78.9,109.9l58.66,4.88" transform="translate(-6.2 0.21)"/><path class="cls-22" d="M79.09,107.65l58.65,4.89Z" transform="translate(-6.2 0.21)"/><path class="cls-23" d="M79.09,107.65l58.65,4.89" transform="translate(-6.2 0.21)"/><path class="cls-22" d="M79.27,105.41l58.66,4.88Z" transform="translate(-6.2 0.21)"/><path class="cls-23" d="M79.27,105.41l58.66,4.88" transform="translate(-6.2 0.21)"/><path class="cls-22" d="M79.46,103.16,138.12,108Z" transform="translate(-6.2 0.21)"/><path class="cls-23" d="M79.46,103.16,138.12,108" transform="translate(-6.2 0.21)"/><path class="cls-22" d="M79.65,100.92l58.65,4.88Z" transform="translate(-6.2 0.21)"/><path class="cls-23" d="M79.65,100.92l58.65,4.88" transform="translate(-6.2 0.21)"/></g><path class="cls-23" d="M112,103.81l15.94,14.72-24.13,11.32L87.82,115.13,112,103.81Z" transform="translate(-6.2 0.21)"/><path class="cls-24" d="M110.39,81.55l15.93,14.72,1.57,22.26L112,103.81Z" transform="translate(-6.2 0.21)"/><path class="cls-9" d="M33.25,59.07a4.78,4.78,0,1,0-.14,6.75A4.78,4.78,0,0,0,33.25,59.07Zm-1,1a3.35,3.35,0,1,0-.09,4.73A3.35,3.35,0,0,0,32.21,60.06Z" transform="translate(-6.2 0.21)"/><path class="cls-10" d="M14.57,39.51a4.87,4.87,0,1,0-.13,6.88A4.87,4.87,0,0,0,14.57,39.51Zm-1.05,1a3.41,3.41,0,1,0-.09,4.82A3.41,3.41,0,0,0,13.52,40.52Z" transform="translate(-6.2 0.21)"/><path class="cls-12" d="M72.22,59.1a5.82,5.82,0,1,0-.16,8.23A5.82,5.82,0,0,0,72.22,59.1ZM71,60.31a4.07,4.07,0,1,0-.11,5.76A4.07,4.07,0,0,0,71,60.31Z" transform="translate(-6.2 0.21)"/><path class="cls-13" d="M54.23,38.89a6.85,6.85,0,1,0-.19,9.7A6.85,6.85,0,0,0,54.23,38.89Zm-1.48,1.43a4.8,4.8,0,1,0-.13,6.78A4.8,4.8,0,0,0,52.75,40.32Z" transform="translate(-6.2 0.21)"/><path class="cls-14" d="M35.62,19.28a7,7,0,1,0-.19,9.94A7,7,0,0,0,35.62,19.28ZM34.1,20.74a4.92,4.92,0,1,0-.13,7A4.91,4.91,0,0,0,34.1,20.74Z" transform="translate(-6.2 0.21)"/><path class="cls-15" d="M110.45,59.86a5.82,5.82,0,1,0-.16,8.23A5.82,5.82,0,0,0,110.45,59.86Zm-1.26,1.21a4.07,4.07,0,1,0-.11,5.76A4.08,4.08,0,0,0,109.19,61.07Z" transform="translate(-6.2 0.21)"/><path class="cls-16" d="M113.45,19.48a8.93,8.93,0,1,0-.25,12.63A8.93,8.93,0,0,0,113.45,19.48Zm-1.93,1.85a6.26,6.26,0,1,0-.18,8.84A6.24,6.24,0,0,0,111.52,21.33Z" transform="translate(-6.2 0.21)"/><path class="cls-18" d="M170.42,2.21a7.9,7.9,0,1,0-.22,11.17A7.9,7.9,0,0,0,170.42,2.21Zm-1.71,1.65a5.52,5.52,0,1,0-.15,7.81A5.53,5.53,0,0,0,168.71,3.86Z" transform="translate(-6.2 0.21)"/></svg>