<svg id="Capa_1" data-name="Capa 1" xmlns="http://www.w3.org/2000/svg" viewBox="0 0 961 551.12"><defs><style>.cls-1{fill:#fffa72;}.cls-2{fill:#151a80;}.cls-3{fill:#2a2a84;}.cls-4{fill:#403a89;}.cls-5{fill:#554a8e;}.cls-6{fill:#6a5a92;}.cls-7{fill:#806a97;}.cls-8{fill:#95799c;}.cls-9{fill:#ccc0c9;}.cls-10,.cls-11,.cls-12,.cls-13,.cls-14,.cls-15,.cls-16,.cls-17,.cls-18,.cls-19,.cls-20,.cls-21,.cls-22,.cls-23,.cls-24,.cls-25,.cls-26,.cls-27,.cls-28,.cls-29,.cls-30,.cls-31,.cls-9{fill-rule:evenodd;}.cls-10{fill:#43478b;}.cls-11{fill:#977e91;}.cls-12{fill:#d0c5cd;}.cls-13{fill:#a48e9e;}.cls-14{fill:#f4f2f4;}.cls-15{fill:#b4a2af;}.cls-16{fill:#bcbdd5;}.cls-17{fill:#a691a0;}.cls-18{fill:#f9f9fb;}.cls-19{fill:#a792a2;}.cls-20{fill:#9c9ec2;}.cls-21{fill:#907689;}.cls-22{fill:#8f7488;}.cls-23{fill:#abaccb;}.cls-24{fill:#baaab6;}.cls-25{fill:#11166c;}.cls-26{fill:#ab97a6;}.cls-27{fill:#e8e2e6;}.cls-28{fill:#989abf;}.cls-29{fill:#947b8e;}.cls-30{fill:#b7b8d2;}.cls-31{fill:#d1c5ce;}</style></defs><title>Hero</title><path class="cls-1" d="M309.7,185q-23.88,56.78,9,71.19c32.9,14.41,111.15,20.18,143.85,51.45S595,314.77,612.07,261.11s47.76-136.39-114.16-136.39Q336,124.72,309.7,185Z" transform="translate(-75 -90.88)"/><path class="cls-2" d="M75.46,259.77q16.17,159,129.4,199.32C318.08,499.45,545.6,515.6,682.91,603.15s381.18,19.87,350.44-130.4S967.6,90.88,514.21,90.88q-453.39,0-438.75,168.89Z" transform="translate(-75 -90.88)"/><path class="cls-3" d="M93,253.54Q100.61,404,205.8,442.19c105.2,38.2,319.74,53.48,445.44,136.34s359.79,18.8,338-123.41S945.59,93.7,516.49,93.7Q87.38,93.7,93,253.54Z" transform="translate(-75 -90.88)"/><path class="cls-4" d="M111,247.32q.18,141.93,97.66,178c97.47,36,299.16,50.45,413.91,128.63s338.55,17.73,324.58-116.43-24.45-341-429.25-341q-404.82,0-406.9,150.8Z" transform="translate(-75 -90.88)"/><path class="cls-5" d="M129.46,241.09q-6.12,133.41,83.91,167.29c90,33.87,279,47.42,383.38,120.9S914.2,546,907,419.84s-7.88-320.5-388.4-320.5q-380.52,0-389.16,141.75Z" transform="translate(-75 -90.88)"/><path class="cls-6" d="M148.25,234.86q-11.4,124.9,71.44,156.61c82.84,31.71,259.16,44.4,353.76,113.19S869.94,520.27,868.58,402.2s6.26-300-350-300q-356.23,0-370.35,132.7Z" transform="translate(-75 -90.88)"/><path class="cls-7" d="M167.4,228.63Q151.65,345,227.54,374.57c75.89,29.55,239.66,41.37,325,105.47s275.62,14.54,279.2-95.47S849.89,105,518,105Q186,105,167.4,228.63Z" transform="translate(-75 -90.88)"/><path class="cls-8" d="M186.87,222.41q-19.22,107.86,49.95,135.25C306,385.05,457.3,396,533.85,455.41s254.88,13.49,262.56-88.48S824.34,107.8,516.68,107.8Q209,107.8,186.87,222.41Z" transform="translate(-75 -90.88)"/><path class="cls-9" d="M845.62,602.74a4.78,4.78,0,1,0,.48,6.74A4.77,4.77,0,0,0,845.62,602.74Zm-.94,1.08a3.35,3.35,0,1,0,.34,4.72A3.34,3.34,0,0,0,844.68,603.82Z" transform="translate(-75 -90.88)"/><path class="cls-10" d="M825.25,585a4.86,4.86,0,1,0,.49,6.86A4.86,4.86,0,0,0,825.25,585Zm-1,1.1a3.41,3.41,0,1,0,.34,4.81A3.42,3.42,0,0,0,824.3,586.06Z" transform="translate(-75 -90.88)"/><path class="cls-11" d="M804.77,567.31a4.78,4.78,0,1,0,.48,6.75A4.78,4.78,0,0,0,804.77,567.31Zm-.94,1.09a3.34,3.34,0,1,0,.34,4.72A3.35,3.35,0,0,0,803.83,568.4Z" transform="translate(-75 -90.88)"/><path class="cls-12" d="M884.44,599.24a5.82,5.82,0,1,0,.58,8.2A5.81,5.81,0,0,0,884.44,599.24Zm-1.14,1.32a4.07,4.07,0,1,0,.41,5.74A4.08,4.08,0,0,0,883.3,600.56Z" transform="translate(-75 -90.88)"/><path class="cls-13" d="M864.69,580.74a6.86,6.86,0,1,0,.69,9.67A6.86,6.86,0,0,0,864.69,580.74Zm-1.34,1.56a4.8,4.8,0,1,0,.48,6.77A4.8,4.8,0,0,0,863.35,582.3Z" transform="translate(-75 -90.88)"/><path class="cls-14" d="M844.38,562.9a7,7,0,1,0,.71,9.91A7,7,0,0,0,844.38,562.9ZM843,564.49a4.92,4.92,0,1,0,.49,6.94A4.92,4.92,0,0,0,843,564.49Z" transform="translate(-75 -90.88)"/><path class="cls-15" d="M922.58,596.52a5.82,5.82,0,1,0,.59,8.21A5.82,5.82,0,0,0,922.58,596.52Zm-1.14,1.32a4.08,4.08,0,1,0,.41,5.75A4.08,4.08,0,0,0,921.44,597.84Z" transform="translate(-75 -90.88)"/><path class="cls-16" d="M921.9,556a8.93,8.93,0,1,0,.9,12.6A8.93,8.93,0,0,0,921.9,556Zm-1.75,2a6.25,6.25,0,1,0,.63,8.82A6.25,6.25,0,0,0,920.15,558.06Z" transform="translate(-75 -90.88)"/><path class="cls-17" d="M796.63,452.9a4.78,4.78,0,1,0,.48,6.74A4.78,4.78,0,0,0,796.63,452.9Zm-.94,1.08a3.35,3.35,0,1,0,.33,4.72A3.34,3.34,0,0,0,795.69,454Z" transform="translate(-75 -90.88)"/><path class="cls-18" d="M977.08,533.67a7.9,7.9,0,1,0,.79,11.14A7.9,7.9,0,0,0,977.08,533.67Zm-1.56,1.79a5.53,5.53,0,1,0,.56,7.8A5.52,5.52,0,0,0,975.52,535.46Z" transform="translate(-75 -90.88)"/><path class="cls-19" d="M919.48,476.29a13.52,13.52,0,1,0,1.36,19.07A13.52,13.52,0,0,0,919.48,476.29Zm-2.66,3.06a9.46,9.46,0,1,0,.95,13.35A9.46,9.46,0,0,0,916.82,479.35Z" transform="translate(-75 -90.88)"/><path class="cls-20" d="M854.52,427.4a7.9,7.9,0,1,0,.79,11.14A7.9,7.9,0,0,0,854.52,427.4ZM853,429.19a5.53,5.53,0,1,0,.55,7.8A5.53,5.53,0,0,0,853,429.19Z" transform="translate(-75 -90.88)"/><path class="cls-21" d="M994.79,513.25a7.9,7.9,0,1,0,.79,11.13A7.9,7.9,0,0,0,994.79,513.25ZM993.24,515a5.53,5.53,0,1,0,.55,7.79A5.54,5.54,0,0,0,993.24,515Z" transform="translate(-75 -90.88)"/><path class="cls-22" d="M976.06,493.57a10.49,10.49,0,1,0,1.06,14.8A10.48,10.48,0,0,0,976.06,493.57ZM974,496a7.34,7.34,0,1,0,.74,10.36A7.36,7.36,0,0,0,974,496Z" transform="translate(-75 -90.88)"/><path class="cls-23" d="M957.34,473.9a13.09,13.09,0,1,0,1.31,18.46A13.09,13.09,0,0,0,957.34,473.9Zm-2.58,3a9.16,9.16,0,1,0,.92,12.92A9.15,9.15,0,0,0,954.76,476.87Z" transform="translate(-75 -90.88)"/><path class="cls-24" d="M937.19,455.87a13.51,13.51,0,1,0,1.36,19.06A13.51,13.51,0,0,0,937.19,455.87Zm-2.66,3.06a9.46,9.46,0,1,0,1,13.35A9.45,9.45,0,0,0,934.53,458.93Z" transform="translate(-75 -90.88)"/><path class="cls-25" d="M916.49,438.48a13.09,13.09,0,1,0,1.31,18.46A13.08,13.08,0,0,0,916.49,438.48Zm-2.58,3a9.16,9.16,0,1,0,.92,12.93A9.16,9.16,0,0,0,913.91,441.44Z" transform="translate(-75 -90.88)"/><path class="cls-26" d="M872.23,407a7.89,7.89,0,1,0,.79,11.14A7.9,7.9,0,0,0,872.23,407Zm-1.55,1.79a5.53,5.53,0,1,0,.55,7.8A5.53,5.53,0,0,0,870.68,408.76Z" transform="translate(-75 -90.88)"/><path class="cls-27" d="M973.69,455.05a11,11,0,1,0,1.1,15.53A11,11,0,0,0,973.69,455.05Zm-2.17,2.49a7.71,7.71,0,1,0,.78,10.87A7.7,7.7,0,0,0,971.52,457.54Z" transform="translate(-75 -90.88)"/><path class="cls-28" d="M953.49,437.07a11.36,11.36,0,1,0,1.14,16A11.37,11.37,0,0,0,953.49,437.07Zm-2.23,2.58a8,8,0,1,0,.79,11.21A8,8,0,0,0,951.26,439.65Z" transform="translate(-75 -90.88)"/><path class="cls-29" d="M1009.44,455.08a7.37,7.37,0,1,0,.75,10.4A7.37,7.37,0,0,0,1009.44,455.08Zm-1.44,1.67a5.16,5.16,0,1,0,.51,7.28A5.16,5.16,0,0,0,1008,456.75Z" transform="translate(-75 -90.88)"/><path class="cls-30" d="M981.89,363.05a4.78,4.78,0,1,0,.48,6.74A4.78,4.78,0,0,0,981.89,363.05Zm-.94,1.08a3.35,3.35,0,1,0,.34,4.72A3.34,3.34,0,0,0,981,364.13Z" transform="translate(-75 -90.88)"/><path class="cls-31" d="M961.12,345.73a4.26,4.26,0,1,0,.43,6A4.26,4.26,0,0,0,961.12,345.73Zm-.83,1a3,3,0,1,0,.29,4.2A3,3,0,0,0,960.29,346.7Z" transform="translate(-75 -90.88)"/><path class="cls-9" d="M180.63,153.05a4.78,4.78,0,1,0-4.91,4.65A4.77,4.77,0,0,0,180.63,153.05Zm-1.43,0a3.35,3.35,0,1,0-3.44,3.25A3.36,3.36,0,0,0,179.2,153Z" transform="translate(-75 -90.88)"/><path class="cls-10" d="M181.48,126a4.87,4.87,0,1,0-5,4.73A4.86,4.86,0,0,0,181.48,126ZM180,126a3.41,3.41,0,1,0-3.5,3.31A3.41,3.41,0,0,0,180,126Z" transform="translate(-75 -90.88)"/><path class="cls-11" d="M182.15,99a4.78,4.78,0,1,0-4.91,4.64A4.77,4.77,0,0,0,182.15,99Zm-1.43,0a3.35,3.35,0,1,0-3.44,3.25A3.35,3.35,0,0,0,180.72,99Z" transform="translate(-75 -90.88)"/><path class="cls-12" d="M207.94,180.86a5.82,5.82,0,1,0-6,5.66A5.82,5.82,0,0,0,207.94,180.86Zm-1.75,0a4.07,4.07,0,1,0-4.18,4A4.07,4.07,0,0,0,206.19,180.82Z" transform="translate(-75 -90.88)"/><path class="cls-13" d="M209.73,153.87a6.85,6.85,0,1,0-7,6.66A6.85,6.85,0,0,0,209.73,153.87Zm-2-.06a4.8,4.8,0,1,0-4.93,4.66A4.8,4.8,0,0,0,207.68,153.81Z" transform="translate(-75 -90.88)"/><path class="cls-14" d="M210.67,126.85a7,7,0,1,0-7.23,6.83A7,7,0,0,0,210.67,126.85Zm-2.11-.06a4.92,4.92,0,1,0-5.06,4.78A4.92,4.92,0,0,0,208.56,126.79Z" transform="translate(-75 -90.88)"/><path class="cls-16" d="M265.1,182.47a8.93,8.93,0,1,0-9.18,8.68A8.94,8.94,0,0,0,265.1,182.47Zm-2.68-.07a6.25,6.25,0,1,0-6.42,6.07A6.25,6.25,0,0,0,262.42,182.4Z" transform="translate(-75 -90.88)"/></svg>