<?xml version="1.0" encoding="utf-8"?>
<!-- Generator: Adobe Illustrator 23.0.2, SVG Export Plug-In . SVG Version: 6.00 Build 0)  -->
<svg version="1.1" id="Capa_1" xmlns="http://www.w3.org/2000/svg" xmlns:xlink="http://www.w3.org/1999/xlink" x="0px" y="0px"
	 viewBox="0 0 961 551.1" style="enable-background:new 0 0 961 551.1;" xml:space="preserve">
<style type="text/css">
	.st0{fill:#6A5A92;}
	.st1{fill:none;stroke:#95799C;stroke-miterlimit:10;}
	.st2{fill-rule:evenodd;clip-rule:evenodd;fill:#CCC0C9;}
	.st3{fill-rule:evenodd;clip-rule:evenodd;fill:#43478B;}
	.st4{fill-rule:evenodd;clip-rule:evenodd;fill:#977E91;}
	.st5{fill-rule:evenodd;clip-rule:evenodd;fill:#D0C5CD;}
	.st6{fill-rule:evenodd;clip-rule:evenodd;fill:#B4A2AF;}
	.st7{fill-rule:evenodd;clip-rule:evenodd;fill:#BCBDD5;}
	.st8{fill-rule:evenodd;clip-rule:evenodd;fill:#A691A0;}
	.st9{fill-rule:evenodd;clip-rule:evenodd;fill:#A792A2;}
	.st10{fill-rule:evenodd;clip-rule:evenodd;fill:#9C9EC2;}
	.st11{fill-rule:evenodd;clip-rule:evenodd;fill:#907689;}
	.st12{fill-rule:evenodd;clip-rule:evenodd;fill:#AB97A6;}
	.st13{fill-rule:evenodd;clip-rule:evenodd;fill:#E8E2E6;}
	.st14{fill-rule:evenodd;clip-rule:evenodd;fill:#947B8E;}
	.st15{fill-rule:evenodd;clip-rule:evenodd;fill:#B7B8D2;}
	.st16{fill-rule:evenodd;clip-rule:evenodd;fill:#D1C5CE;}
	.st17{fill-rule:evenodd;clip-rule:evenodd;fill:#A48E9E;}
	.st18{fill-rule:evenodd;clip-rule:evenodd;fill:#F4F2F4;}
</style>
<title>Hero</title>
<path class="st0" d="M958.3,381.9C927.6,231.6,892.6,0,439.2,0C137,0-9.3,56.3,0.5,168.9c10.8,106,53.9,172.4,129.4,199.3
	c113.2,40.4,340.7,56.5,478,144.1S989.1,532.1,958.3,381.9z M858.3,337.1C853.9,464,622.8,521.2,519.1,447.2
	s-302.6-87.6-394.8-121.7c-61.5-22.7-85.8-78.9-73.1-168.4C66.4,62,208.3,14.5,477.2,14.5C880.3,14.5,862.6,210.1,858.3,337.1z"/>
<path class="st1" d="M78.1,152.3c-15.8,82,4.7,133.4,61.4,154.2c85.1,31.2,271.2,43.7,365.4,111.4s313.5,15.4,323-100.9
	c9.4-116.2,34.4-295.4-344.1-295.4C231.5,21.7,96.3,65.2,78.1,152.3z"/>
<path class="st2" d="M770.6,511.9c-2-1.7-5-1.5-6.7,0.5c-1.7,2-1.5,5,0.5,6.7c2,1.7,5,1.5,6.7-0.5c0,0,0,0,0,0
	C772.8,516.6,772.6,513.6,770.6,511.9C770.6,511.9,770.6,511.9,770.6,511.9z M769.7,512.9c-1.4-1.2-3.5-1.1-4.7,0.3
	s-1.1,3.5,0.3,4.7c1.4,1.2,3.5,1.1,4.7-0.3c0,0,0,0,0,0C771.2,516.3,771.1,514.2,769.7,512.9C769.7,512.9,769.7,512.9,769.7,512.9z"
	/>
<path class="st3" d="M772,489.3c-2-1.8-5.1-1.5-6.9,0.5c-1.8,2-1.5,5.1,0.5,6.9c2,1.8,5.1,1.5,6.9-0.5
	C774.3,494.1,774.1,491,772,489.3C772,489.3,772,489.3,772,489.3z M771,490.4c-1.4-1.2-3.6-1.1-4.8,0.3s-1.1,3.6,0.3,4.8
	c1.4,1.2,3.6,1.1,4.8-0.3c0,0,0,0,0,0C772.6,493.8,772.5,491.6,771,490.4C771.1,490.3,771.1,490.3,771,490.4L771,490.4z"/>
<path class="st4" d="M729.8,476.4c-2-1.7-5-1.5-6.7,0.5c-1.7,2-1.5,5,0.5,6.7c2,1.7,5,1.5,6.7-0.5
	C732,481.2,731.8,478.2,729.8,476.4C729.8,476.4,729.8,476.4,729.8,476.4z M728.8,477.5c-1.4-1.2-3.5-1-4.7,0.3
	c-1.2,1.4-1,3.5,0.3,4.7c1.4,1.2,3.5,1.1,4.7-0.3C730.4,480.8,730.2,478.7,728.8,477.5z"/>
<path class="st5" d="M809.4,508.4c-2.4-2.1-6.1-1.9-8.2,0.6c-2.1,2.4-1.9,6.1,0.6,8.2c2.4,2.1,6.1,1.9,8.2-0.6c0,0,0,0,0,0
	C812.1,514.1,811.9,510.5,809.4,508.4C809.4,508.4,809.4,508.4,809.4,508.4z M808.3,509.7c-1.7-1.5-4.3-1.3-5.7,0.4
	s-1.3,4.3,0.4,5.7c1.7,1.5,4.3,1.3,5.7-0.4c0,0,0,0,0,0C810.2,513.7,810,511.2,808.3,509.7z"/>
<path class="st6" d="M847.6,505.6c-2.4-2.1-6.1-1.8-8.2,0.6s-1.8,6.1,0.6,8.2c2.4,2.1,6.1,1.8,8.2-0.6
	C850.3,511.4,850,507.7,847.6,505.6C847.6,505.6,847.6,505.6,847.6,505.6z M846.4,507c-1.7-1.5-4.3-1.3-5.8,0.4
	c-1.5,1.7-1.3,4.3,0.4,5.8c1.7,1.5,4.3,1.3,5.8-0.4c0,0,0,0,0,0C848.3,511,848.1,508.4,846.4,507z"/>
<path class="st7" d="M846.9,465.1c-3.7-3.2-9.4-2.8-12.6,0.9s-2.8,9.4,0.9,12.6c3.7,3.2,9.4,2.8,12.6-0.9
	C851,474,850.6,468.4,846.9,465.1C846.9,465.1,846.9,465.1,846.9,465.1z M845.2,467.1c-2.6-2.3-6.6-2-8.8,0.6
	c-2.3,2.6-2,6.6,0.6,8.8c2.6,2.3,6.6,2,8.8-0.6C848,473.3,847.7,469.4,845.2,467.1L845.2,467.1z"/>
<path class="st8" d="M819.4,281.7c-2-1.7-5-1.5-6.7,0.5c-1.7,2-1.5,5,0.5,6.7c2,1.7,5,1.5,6.7-0.5c0,0,0,0,0,0
	C821.6,286.5,821.3,283.5,819.4,281.7z M818.4,282.8c-1.4-1.2-3.5-1.1-4.7,0.3c-1.2,1.4-1.1,3.5,0.3,4.7c1.4,1.2,3.5,1.1,4.7-0.3
	c0,0,0,0,0,0C819.9,286.1,819.8,284,818.4,282.8L818.4,282.8z"/>
<path class="st9" d="M844.5,385.4c-5.6-4.9-14.2-4.3-19.1,1.4c-4.9,5.6-4.3,14.2,1.4,19.1c5.6,4.9,14.2,4.3,19.1-1.4c0,0,0,0,0,0
	C850.7,398.8,850.1,390.3,844.5,385.4z M841.8,388.5c-3.9-3.4-9.9-3-13.3,1c-3.4,3.9-3,9.9,1,13.3c3.9,3.4,9.9,3,13.3-0.9
	C846.2,397.9,845.8,391.9,841.8,388.5C841.8,388.5,841.8,388.5,841.8,388.5z"/>
<path class="st10" d="M798.8,347.6c-3.3-2.9-8.3-2.5-11.1,0.8c-2.9,3.3-2.5,8.3,0.8,11.1c3.3,2.9,8.3,2.5,11.1-0.8c0,0,0,0,0,0
	C802.5,355.4,802.1,350.4,798.8,347.6z M797.3,349.4c-2.3-2-5.8-1.8-7.8,0.5c-2,2.3-1.8,5.8,0.5,7.8c2.3,2,5.8,1.8,7.8-0.5
	c0,0,0,0,0,0C799.9,354.9,799.6,351.4,797.3,349.4z"/>
<path class="st11" d="M919.8,422.4c-3.3-2.9-8.3-2.5-11.1,0.8c-2.9,3.3-2.5,8.3,0.8,11.1c3.3,2.9,8.3,2.5,11.1-0.8c0,0,0,0,0,0
	C923.4,430.2,923.1,425.2,919.8,422.4z M918.2,424.1c-2.3-2-5.8-1.8-7.8,0.5c-2,2.3-1.8,5.8,0.5,7.8s5.8,1.8,7.8-0.5c0,0,0,0,0,0
	C920.8,429.6,920.5,426.1,918.2,424.1z"/>
<path class="st12" d="M840.8,342.1c-3.3-2.9-8.3-2.5-11.1,0.8c-2.9,3.3-2.5,8.3,0.8,11.1c3.3,2.8,8.3,2.5,11.1-0.8
	C844.4,349.9,844.1,344.9,840.8,342.1z M839.2,343.8c-2.3-2-5.8-1.8-7.8,0.5c-2,2.3-1.8,5.8,0.5,7.8c2.3,2,5.8,1.8,7.8-0.5
	c0,0,0,0,0,0C841.8,349.3,841.6,345.8,839.2,343.8C839.3,343.8,839.3,343.8,839.2,343.8L839.2,343.8z"/>
<path class="st13" d="M893.5,377.8c-4.6-4-11.5-3.5-15.5,1.1c-4,4.6-3.5,11.5,1.1,15.5c4.6,4,11.5,3.5,15.5-1.1
	C898.6,388.8,898.1,381.8,893.5,377.8C893.5,377.9,893.5,377.8,893.5,377.8z M891.3,380.3c-3.2-2.8-8.1-2.4-10.9,0.8
	s-2.4,8.1,0.8,10.9c3.2,2.8,8.1,2.4,10.9-0.8c0,0,0,0,0,0C894.9,388,894.6,383.1,891.3,380.3C891.4,380.3,891.4,380.3,891.3,380.3
	L891.3,380.3z"/>
<path class="st14" d="M934.4,364.2c-3.1-2.7-7.7-2.3-10.4,0.8s-2.3,7.7,0.8,10.4c3.1,2.7,7.7,2.3,10.4-0.7
	C937.9,371.5,937.5,366.9,934.4,364.2C934.4,364.2,934.4,364.2,934.4,364.2z M933,365.9c-2.2-1.9-5.4-1.6-7.3,0.5s-1.6,5.4,0.5,7.3
	c2.2,1.9,5.4,1.6,7.3-0.5C935.4,371,935.2,367.7,933,365.9C933,365.9,933,365.9,933,365.9z"/>
<path class="st15" d="M906.9,272.2c-2-1.7-5-1.5-6.7,0.5c-1.7,2-1.5,5,0.5,6.7c2,1.7,5,1.5,6.7-0.5c0,0,0,0,0,0
	C909.1,276.9,908.9,273.9,906.9,272.2z M906,273.2c-1.4-1.2-3.5-1.1-4.7,0.3s-1.1,3.5,0.3,4.7c1.4,1.2,3.5,1.1,4.7-0.3c0,0,0,0,0,0
	C907.5,276.6,907.4,274.5,906,273.2C906,273.3,906,273.3,906,273.2L906,273.2z"/>
<path class="st16" d="M886.1,254.9c-1.8-1.5-4.5-1.4-6,0.4c-1.5,1.8-1.4,4.5,0.4,6s4.5,1.4,6-0.4c0,0,0,0,0,0
	C888.1,259.1,887.9,256.4,886.1,254.9z M885.3,255.9c-1.2-1.1-3.1-1-4.2,0.3s-1,3.1,0.3,4.2c1.2,1.1,3.1,1,4.2-0.3c0,0,0,0,0,0
	C886.7,258.8,886.5,256.9,885.3,255.9L885.3,255.9z"/>
<path class="st2" d="M105.6,62.2c0.1-2.6-2-4.8-4.7-4.9c-2.6-0.1-4.8,2-4.9,4.7c-0.1,2.6,2,4.8,4.6,4.9
	C103.4,66.9,105.6,64.8,105.6,62.2C105.6,62.2,105.6,62.2,105.6,62.2z M104.2,62.2c0.1-1.8-1.4-3.4-3.2-3.4s-3.4,1.4-3.4,3.2
	c-0.1,1.8,1.4,3.4,3.2,3.4c0,0,0,0,0,0C102.6,65.5,104.2,64,104.2,62.2C104.2,62.1,104.2,62.1,104.2,62.2L104.2,62.2z"/>
<path class="st3" d="M106.5,35.1c0.1-2.7-2-4.9-4.7-5c-2.7-0.1-4.9,2-5,4.7c-0.1,2.7,2,4.9,4.7,5c0,0,0,0,0,0
	C104.2,39.9,106.4,37.8,106.5,35.1C106.5,35.1,106.5,35.1,106.5,35.1z M105,35.1c0.1-1.9-1.4-3.5-3.3-3.5c-1.9-0.1-3.5,1.4-3.5,3.3
	s1.4,3.5,3.3,3.5c0,0,0,0,0,0C103.4,38.5,104.9,37,105,35.1z"/>
<path class="st4" d="M107.1,8.1c0.1-2.6-2-4.8-4.6-4.9c-2.6-0.1-4.8,2-4.9,4.6c-0.1,2.6,2,4.8,4.6,4.9c0,0,0,0,0,0
	C104.9,12.8,107.1,10.8,107.1,8.1C107.1,8.1,107.1,8.1,107.1,8.1z M105.7,8.1c0.1-1.8-1.4-3.4-3.2-3.4c-1.8-0.1-3.4,1.4-3.4,3.2
	c-0.1,1.8,1.4,3.4,3.2,3.4c0,0,0,0,0,0C104.1,11.4,105.7,10,105.7,8.1z"/>
<path class="st5" d="M132.9,90c0.1-3.2-2.4-5.9-5.7-6c-3.2-0.1-5.9,2.4-6,5.7c-0.1,3.2,2.4,5.9,5.6,6
	C130.2,95.7,132.8,93.2,132.9,90C132.9,90,132.9,90,132.9,90z M131.2,90c0-2.2-1.8-4.1-4-4.1s-4.1,1.8-4.1,4c0,2.2,1.7,4.1,4,4.1
	C129.3,94,131.1,92.3,131.2,90C131.2,90,131.2,90,131.2,90L131.2,90z"/>
<path class="st17" d="M134.7,63c0.1-3.8-2.9-6.9-6.7-7s-6.9,2.9-7,6.7c-0.1,3.8,2.9,6.9,6.7,7c0,0,0,0,0,0
	C131.5,69.7,134.6,66.8,134.7,63z M132.7,62.9c0.1-2.6-2-4.9-4.7-4.9c-2.6-0.1-4.9,2-4.9,4.7c-0.1,2.6,2,4.9,4.7,4.9c0,0,0,0,0,0
	C130.4,67.6,132.6,65.6,132.7,62.9L132.7,62.9z"/>
<path class="st18" d="M135.7,36c0.1-3.9-3-7.1-6.8-7.2c-3.9-0.1-7.1,3-7.2,6.8c-0.1,3.8,2.9,7,6.8,7.2
	C132.3,42.9,135.5,39.9,135.7,36C135.7,36,135.7,36,135.7,36z M133.6,35.9c0.1-2.7-2.1-5-4.8-5.1c-2.7-0.1-5,2.1-5.1,4.8
	c-0.1,2.7,2.1,5,4.8,5.1C131.2,40.8,133.5,38.6,133.6,35.9C133.6,35.9,133.6,35.9,133.6,35.9z"/>
<path class="st7" d="M190.1,91.6c0.1-4.9-3.8-9-8.7-9.2c-4.9-0.1-9,3.8-9.2,8.7c-0.1,4.9,3.7,9,8.7,9.2
	C185.9,100.4,190,96.5,190.1,91.6z M187.4,91.5c0.1-3.5-2.6-6.3-6.1-6.4c-3.5-0.1-6.3,2.6-6.4,6.1c-0.1,3.5,2.6,6.3,6.1,6.4
	c0,0,0,0,0,0C184.4,97.7,187.3,95,187.4,91.5z"/>
</svg>
