<?xml version="1.0" encoding="utf-8"?>
<!-- Generator: Adobe Illustrator 23.0.2, SVG Export Plug-In . SVG Version: 6.00 Build 0)  -->
<svg version="1.1" id="Capa_1" xmlns="http://www.w3.org/2000/svg" xmlns:xlink="http://www.w3.org/1999/xlink" x="0px" y="0px"
	 viewBox="0 0 48.3 88.8" style="enable-background:new 0 0 48.3 88.8;" xml:space="preserve">
<style type="text/css">
	.st0{fill:#ECEDEE;stroke:#3D3D3C;stroke-width:0.96;stroke-linecap:round;stroke-linejoin:round;}
	.st1{fill:#FFFFFF;stroke:#3D3D3C;stroke-width:0.96;stroke-linecap:round;stroke-linejoin:round;}
	.st2{fill:#3782FF;stroke:#3D3D3C;stroke-width:0.96;stroke-linecap:round;stroke-linejoin:round;}
	.st3{fill:#F5F6F7;}
	.st4{fill:none;stroke:#3D3D3C;stroke-width:0.96;stroke-linecap:round;stroke-linejoin:round;}
</style>
<title>circleSeparator</title>
<g>
	<path class="st0" d="M6.1,0l35.2,0c3.4,0,6,2.7,6.1,6.1l0,76.6c0,3.4-2.7,6-6.1,6.1l-35.2,0c-3.4,0-6-2.7-6.1-6.1L0,6.1
		C0,2.7,2.8,0,6.1,0z"/>
	<path class="st1" d="M39.4,2.2l-3.1,0c-1,0-1.8,0.9-1.8,1.8c0,1-0.8,1.8-1.8,1.8L14.7,5.9c-1,0-1.7-0.8-1.8-1.8
		c0-1-0.8-1.9-1.8-1.8L8,2.2C5,2.3,2.5,4.7,2.4,7.8l0,71.9c0,3.1,2.5,5.7,5.5,5.6l31.4,0.1c3.1-0.1,5.6-2.5,5.6-5.6l0-72
		C45,4.7,42.5,2.2,39.4,2.2z"/>
	<path class="st1" d="M9.1,11.5l29.1,0c2,0,3.5,1.6,3.6,3.5l-0.1,34.6c0,2-1.6,3.5-3.5,3.6l-29.1,0c-2,0-3.5-1.6-3.6-3.5l0.1-34.6
		C5.6,13.1,7.2,11.5,9.1,11.5z"/>
	<path class="st2" d="M9.4,57.7l28.6,0c2.2,0,3.8,1.7,3.8,3.8l0,0c0,2.2-1.7,3.8-3.8,3.8l-28.6,0c-2.2,0-3.8-1.7-3.8-3.8l0,0
		C5.6,59.4,7.3,57.6,9.4,57.7z"/>
	<path class="st1" d="M9.4,68.3l28.6,0c2.2,0,3.8,1.7,3.8,3.8l0,0c0,2.2-1.7,3.8-3.8,3.8l-28.6,0c-2.2,0-3.8-1.7-3.8-3.8l0,0
		C5.6,70,7.3,68.3,9.4,68.3z"/>
	<path class="st3" d="M13.6,15.3c-1.6,0.9-3.1,2.2-4.2,3.7L13.6,15.3z"/>
	<path class="st3" d="M33.2,70.9L32.2,72L33.2,70.9z"/>
	<path class="st4" d="M33.2,70.9L32.2,72"/>
</g>
</svg>
