<?xml version="1.0" encoding="utf-8"?>
<!-- Generator: Adobe Illustrator 23.0.2, SVG Export Plug-In . SVG Version: 6.00 Build 0)  -->
<svg version="1.1" id="Capa_1" xmlns="http://www.w3.org/2000/svg" xmlns:xlink="http://www.w3.org/1999/xlink" x="0px" y="0px"
	 viewBox="0 0 72.3 86.6" style="enable-background:new 0 0 72.3 86.6;" xml:space="preserve">
<style type="text/css">
	.st0{clip-path:url(#SVGID_2_);}
	.st1{fill:#FFFFFF;}
	.st2{fill:none;stroke:#646464;stroke-width:0.6164;stroke-linecap:round;stroke-linejoin:round;stroke-miterlimit:10;}
	.st3{fill:#646464;}
	.st4{fill:#3782FF;}
	.st5{fill:none;stroke:#FFFFFF;stroke-width:0.6164;stroke-linecap:round;stroke-linejoin:round;stroke-miterlimit:10;}
	.st6{fill:#784DC7;}
	.st7{fill:none;stroke:#3782FF;stroke-width:1.6438;}
</style>
<g>
	<defs>
		<path id="SVGID_1_" d="M6.7,1.8l58.5-0.2c3.7,0,6.8,3,6.8,6.7l0.3,71.3c0,3.7-3,6.8-6.7,6.8L7,86.6c-3.7,0-6.8-3-6.8-6.7L0,8.6
			C0,4.9,3,1.8,6.7,1.8z"/>
	</defs>
	<clipPath id="SVGID_2_">
		<use xlink:href="#SVGID_1_"  style="overflow:visible;"/>
	</clipPath>
	<g class="st0">
		<path class="st1" d="M1.6,1.8l68.7-0.3c0.9,0,1.7,0.7,1.7,1.7l0,6.1c0,0.9-0.7,1.7-1.7,1.7L1.7,11.3C0.8,11.3,0,10.5,0,9.6l0-6.1
			C0,2.6,0.7,1.9,1.6,1.8z"/>
		<path class="st2" d="M7.2,6.3L5,6.3l0,1.1c0,0.4,0.1,0.6,0.6,0.6l1.1,0c0.4,0,0.6-0.1,0.6-0.6L7.2,6.3z"/>
		<path class="st2" d="M7.4,5.8l0,0.1c0,0.2-0.1,0.3-0.3,0.3L5,6.3C4.8,6.3,4.8,6.1,4.8,6l0-0.1c0-0.2,0.1-0.3,0.3-0.3l2.1,0
			C7.3,5.6,7.4,5.7,7.4,5.8z"/>
		<path class="st2" d="M6,5.6l-0.8,0c0-0.1,0-0.1,0-0.2l0.2-0.2c0.1-0.1,0.1-0.1,0.2,0L6,5.6z"/>
		<path class="st2" d="M6.9,5.6l-0.8,0l0.4-0.4c0.1-0.1,0.1-0.1,0.2,0l0.2,0.2C6.9,5.4,6.9,5.5,6.9,5.6z"/>
		<path class="st2" d="M5.7,6.3l0,0.7c0,0.1,0.1,0.2,0.2,0.1L6,7c0,0,0.1,0,0.2,0l0.1,0.1c0.1,0.1,0.2,0,0.2-0.1l0-0.7L5.7,6.3z"/>
		<path class="st3" d="M11.8,5.3l0,2.2l0.3,0l0-2.7l-0.3,0l-1,1.5l-1-1.5l-0.3,0l0,2.7l0.3,0l0-2.2l1,1.4l0,0L11.8,5.3z M12.8,6.6
			l1.6,0c0,0,0,0,0-0.1c0,0,0,0,0,0c0-0.1,0-0.3-0.1-0.4c0-0.1-0.1-0.2-0.2-0.3c-0.1-0.1-0.2-0.2-0.3-0.2c-0.1-0.1-0.2-0.1-0.4-0.1
			c-0.1,0-0.3,0-0.4,0.1c-0.1,0.1-0.2,0.1-0.3,0.2c-0.1,0.1-0.2,0.2-0.2,0.3c0,0.1-0.1,0.3-0.1,0.4c0,0.2,0,0.3,0.1,0.4
			c0.1,0.1,0.1,0.2,0.2,0.3c0.1,0.1,0.2,0.2,0.3,0.2c0.1,0,0.3,0.1,0.4,0.1c0.2,0,0.4,0,0.5-0.1c0.1-0.1,0.2-0.2,0.3-0.3L14.2,7
			c-0.1,0.1-0.2,0.2-0.3,0.2c-0.1,0.1-0.2,0.1-0.4,0.1c-0.1,0-0.2,0-0.3,0c-0.1,0-0.2-0.1-0.2-0.1C13,7.1,12.9,7,12.9,6.9
			C12.9,6.8,12.8,6.7,12.8,6.6z M12.8,6.4c0-0.1,0-0.2,0.1-0.3C12.9,6.1,13,6,13,5.9c0.1-0.1,0.1-0.1,0.2-0.1c0.1,0,0.2-0.1,0.2-0.1
			c0.1,0,0.2,0,0.3,0.1c0.1,0,0.1,0.1,0.2,0.1C14,6,14,6.1,14.1,6.1c0,0.1,0.1,0.2,0.1,0.3L12.8,6.4z M15,6.4c0-0.1,0-0.2,0-0.3
			c0-0.1,0.1-0.1,0.1-0.2c0.1-0.1,0.1-0.1,0.2-0.1c0.1,0,0.2,0,0.2,0c0.2,0,0.3,0.1,0.4,0.2c0.1,0.1,0.1,0.3,0.1,0.4l0,1.2l0.3,0
			l0-1.2c0-0.1,0-0.2-0.1-0.3c0-0.1-0.1-0.2-0.2-0.3c-0.1-0.1-0.1-0.1-0.2-0.2c-0.1,0-0.2-0.1-0.3-0.1c-0.2,0-0.3,0-0.4,0.1
			c-0.1,0.1-0.2,0.2-0.3,0.3l0-0.3l-0.3,0l0,2l0.3,0L15,6.4z M18.4,6.6c0,0.1,0,0.2,0,0.3c0,0.1-0.1,0.1-0.1,0.2
			c-0.1,0.1-0.1,0.1-0.2,0.1c-0.1,0-0.2,0-0.2,0c-0.2,0-0.3-0.1-0.4-0.2c-0.1-0.1-0.1-0.3-0.1-0.4l0-1.2l-0.3,0l0,1.2
			c0,0.1,0,0.2,0.1,0.3c0,0.1,0.1,0.2,0.2,0.3c0.1,0.1,0.1,0.1,0.2,0.2c0.1,0,0.2,0.1,0.3,0.1c0.2,0,0.3,0,0.4-0.1
			c0.1-0.1,0.2-0.2,0.3-0.3l0,0.3l0.3,0l0-2l-0.3,0L18.4,6.6z M20.4,5.1l0-0.3l-0.3,0l0,0.3L20.4,5.1z M20.4,7.5l0-2l-0.3,0l0,2
			L20.4,7.5z M21.3,5.8l0.6,0l0-0.3l-0.6,0l0-0.6l-0.3,0l0,0.6l-0.3,0l0,0.3l0.3,0L21,7c0,0.1,0,0.2,0,0.3c0,0.1,0.1,0.1,0.1,0.2
			c0.1,0,0.1,0.1,0.2,0.1c0.1,0,0.1,0,0.2,0c0.1,0,0.1,0,0.2,0c0.1,0,0.1,0,0.2-0.1l0-0.3c-0.1,0-0.1,0-0.1,0.1c0,0-0.1,0-0.1,0
			c-0.1,0-0.2,0-0.2-0.1c-0.1,0-0.1-0.1-0.1-0.3L21.3,5.8z M22.4,6.6l1.6,0c0,0,0,0,0-0.1c0,0,0,0,0,0c0-0.1,0-0.3-0.1-0.4
			c0-0.1-0.1-0.2-0.2-0.3c-0.1-0.1-0.2-0.2-0.3-0.2c-0.1-0.1-0.2-0.1-0.4-0.1c-0.1,0-0.3,0-0.4,0.1c-0.1,0.1-0.2,0.1-0.3,0.2
			c-0.1,0.1-0.2,0.2-0.2,0.3c0,0.1-0.1,0.3-0.1,0.4c0,0.2,0,0.3,0.1,0.4c0.1,0.1,0.1,0.2,0.2,0.3c0.1,0.1,0.2,0.2,0.3,0.2
			c0.1,0,0.3,0.1,0.4,0.1c0.2,0,0.4,0,0.5-0.1c0.1-0.1,0.2-0.2,0.3-0.3L23.8,7c-0.1,0.1-0.2,0.2-0.3,0.2c-0.1,0.1-0.2,0.1-0.4,0.1
			c-0.1,0-0.2,0-0.3,0c-0.1,0-0.2-0.1-0.2-0.1C22.6,7,22.5,7,22.5,6.9C22.5,6.8,22.4,6.7,22.4,6.6z M22.4,6.4c0-0.1,0-0.2,0.1-0.3
			c0-0.1,0.1-0.2,0.1-0.2c0.1-0.1,0.1-0.1,0.2-0.1c0.1,0,0.2-0.1,0.2-0.1c0.1,0,0.2,0,0.3,0.1c0.1,0,0.1,0.1,0.2,0.1
			C23.6,6,23.6,6,23.7,6.1c0,0.1,0.1,0.2,0.1,0.3L22.4,6.4z M25.9,5.8c-0.1-0.1-0.1-0.2-0.2-0.3c-0.1-0.1-0.2-0.1-0.4-0.1
			c-0.1,0-0.2,0-0.2,0c-0.1,0-0.1,0-0.2,0.1c-0.1,0-0.1,0.1-0.1,0.1c0,0-0.1,0.1-0.1,0.1l0-0.3l-0.3,0l0,2l0.3,0l0-1.1
			c0-0.1,0-0.2,0-0.3c0-0.1,0.1-0.1,0.1-0.2c0.1-0.1,0.1-0.1,0.2-0.1c0.1,0,0.1,0,0.2,0c0.2,0,0.3,0.1,0.4,0.2
			c0.1,0.1,0.1,0.2,0.1,0.4l0,1.2l0.3,0l0-1.2c0-0.1,0-0.2,0-0.3c0-0.1,0.1-0.1,0.1-0.2c0.1-0.1,0.1-0.1,0.2-0.1c0.1,0,0.1,0,0.2,0
			c0.2,0,0.3,0.1,0.4,0.2C27,6,27.1,6.1,27.1,6.3l0,1.2l0.3,0l0-1.2c0-0.3-0.1-0.4-0.2-0.6c-0.1-0.1-0.3-0.2-0.5-0.2
			c-0.1,0-0.2,0-0.2,0c-0.1,0-0.1,0-0.2,0.1c-0.1,0-0.1,0.1-0.2,0.1C26,5.7,26,5.8,25.9,5.8z"/>
		<path class="st2" d="M65.5,7.4l0.9-0.9c0.1-0.1,0.1-0.3,0-0.4l-0.9-0.9"/>
		<path class="st1" d="M1.7,11.3L70.4,11c0.9,0,1.7,0.7,1.7,1.7l0,6.1c0,0.9-0.7,1.7-1.7,1.7L1.7,20.7C0.8,20.7,0,19.9,0,19l0-6.1
			C0,12,0.8,11.3,1.7,11.3z"/>
		<path class="st2" d="M7.2,15.7l-2.2,0l0,1.1c0,0.4,0.1,0.6,0.6,0.6l1.1,0c0.4,0,0.6-0.1,0.6-0.6L7.2,15.7z"/>
		<path class="st2" d="M7.4,15.3l0,0.1c0,0.2-0.1,0.3-0.3,0.3l-2.1,0c-0.2,0-0.3-0.1-0.3-0.3l0-0.1c0-0.2,0.1-0.3,0.3-0.3l2.1,0
			C7.4,15,7.4,15.1,7.4,15.3z"/>
		<path class="st2" d="M6.1,15l-0.8,0c0-0.1,0-0.1,0-0.2l0.2-0.2c0.1-0.1,0.1-0.1,0.2,0L6.1,15z"/>
		<path class="st2" d="M6.9,15l-0.8,0l0.4-0.4c0.1-0.1,0.1-0.1,0.2,0l0.2,0.2C7,14.9,7,14.9,6.9,15z"/>
		<path class="st2" d="M5.7,15.7l0,0.7c0,0.1,0.1,0.2,0.2,0.1L6,16.4c0,0,0.1,0,0.2,0l0.1,0.1c0.1,0.1,0.2,0,0.2-0.1l0-0.7L5.7,15.7
			z"/>
		<path class="st3" d="M11.8,14.7l0,2.2l0.3,0l0-2.7l-0.3,0l-1,1.5l-1-1.5l-0.3,0l0,2.7l0.3,0l0-2.2l1,1.4l0,0L11.8,14.7z
			 M12.9,16.1l1.6,0c0,0,0,0,0-0.1c0,0,0,0,0,0c0-0.1,0-0.3-0.1-0.4c0-0.1-0.1-0.2-0.2-0.3C14.1,15.1,14,15,13.9,15
			c-0.1-0.1-0.2-0.1-0.4-0.1c-0.1,0-0.3,0-0.4,0.1c-0.1,0.1-0.2,0.1-0.3,0.2c-0.1,0.1-0.2,0.2-0.2,0.3c0,0.1-0.1,0.3-0.1,0.4
			c0,0.2,0,0.3,0.1,0.4c0.1,0.1,0.1,0.2,0.2,0.3c0.1,0.1,0.2,0.2,0.3,0.2c0.1,0,0.3,0.1,0.4,0.1c0.2,0,0.4,0,0.5-0.1
			c0.1-0.1,0.2-0.2,0.3-0.3l-0.2-0.2c-0.1,0.1-0.2,0.2-0.3,0.2c-0.1,0.1-0.2,0.1-0.4,0.1c-0.1,0-0.2,0-0.3,0c-0.1,0-0.2-0.1-0.2-0.1
			c-0.1-0.1-0.1-0.1-0.2-0.2C12.9,16.3,12.9,16.2,12.9,16.1z M12.9,15.8c0-0.1,0-0.2,0.1-0.3c0-0.1,0.1-0.2,0.1-0.2
			c0.1-0.1,0.1-0.1,0.2-0.1c0.1,0,0.2-0.1,0.2-0.1c0.1,0,0.2,0,0.3,0.1c0.1,0,0.1,0.1,0.2,0.1c0.1,0.1,0.1,0.1,0.1,0.2
			c0,0.1,0.1,0.2,0.1,0.3L12.9,15.8z M15.1,15.8c0-0.1,0-0.2,0-0.3c0-0.1,0.1-0.1,0.1-0.2c0.1-0.1,0.1-0.1,0.2-0.1
			c0.1,0,0.2,0,0.2,0c0.2,0,0.3,0.1,0.4,0.2c0.1,0.1,0.1,0.3,0.1,0.4l0,1.2l0.3,0l0-1.2c0-0.1,0-0.2-0.1-0.3c0-0.1-0.1-0.2-0.2-0.3
			c-0.1-0.1-0.1-0.1-0.2-0.2c-0.1,0-0.2-0.1-0.3-0.1c-0.2,0-0.3,0-0.4,0.1c-0.1,0.1-0.2,0.2-0.3,0.3l0-0.3l-0.3,0l0,2l0.3,0
			L15.1,15.8z M18.4,16.1c0,0.1,0,0.2,0,0.3c0,0.1-0.1,0.1-0.1,0.2c-0.1,0.1-0.1,0.1-0.2,0.1c-0.1,0-0.2,0-0.2,0
			c-0.2,0-0.3-0.1-0.4-0.2c-0.1-0.1-0.1-0.3-0.1-0.4l0-1.2l-0.3,0l0,1.2c0,0.1,0,0.2,0.1,0.3c0,0.1,0.1,0.2,0.2,0.3
			c0.1,0.1,0.1,0.1,0.2,0.2c0.1,0,0.2,0.1,0.3,0.1c0.2,0,0.3,0,0.4-0.1c0.1-0.1,0.2-0.2,0.3-0.3l0,0.3l0.3,0l0-2l-0.3,0L18.4,16.1z
			 M20.5,14.5l0-0.3l-0.3,0l0,0.3L20.5,14.5z M20.5,16.9l0-2l-0.3,0l0,2L20.5,16.9z M21.4,15.2l0.6,0l0-0.3l-0.6,0l0-0.6l-0.3,0
			l0,0.6l-0.3,0l0,0.3l0.3,0l0,1.2c0,0.1,0,0.2,0,0.3c0,0.1,0.1,0.1,0.1,0.2c0.1,0,0.1,0.1,0.2,0.1c0.1,0,0.1,0,0.2,0
			c0.1,0,0.1,0,0.2,0c0.1,0,0.1,0,0.2-0.1l0-0.3c-0.1,0-0.1,0-0.1,0.1c0,0-0.1,0-0.1,0c-0.1,0-0.2,0-0.2-0.1c-0.1,0-0.1-0.1-0.1-0.3
			L21.4,15.2z M22.5,16l1.6,0c0,0,0,0,0-0.1c0,0,0,0,0,0c0-0.1,0-0.3-0.1-0.4c0-0.1-0.1-0.2-0.2-0.3c-0.1-0.1-0.2-0.2-0.3-0.2
			c-0.1-0.1-0.2-0.1-0.4-0.1c-0.1,0-0.3,0-0.4,0.1c-0.1,0.1-0.2,0.1-0.3,0.2c-0.1,0.1-0.2,0.2-0.2,0.3c0,0.1-0.1,0.3-0.1,0.4
			c0,0.2,0,0.3,0.1,0.4c0.1,0.1,0.1,0.2,0.2,0.3c0.1,0.1,0.2,0.2,0.3,0.2c0.1,0,0.3,0.1,0.4,0.1c0.2,0,0.4,0,0.5-0.1
			c0.1-0.1,0.2-0.2,0.3-0.3l-0.2-0.2c-0.1,0.1-0.2,0.2-0.3,0.2c-0.1,0.1-0.2,0.1-0.4,0.1c-0.1,0-0.2,0-0.3,0c-0.1,0-0.2-0.1-0.2-0.1
			c-0.1-0.1-0.1-0.1-0.2-0.2C22.5,16.2,22.5,16.1,22.5,16z M22.5,15.8c0-0.1,0-0.2,0.1-0.3c0-0.1,0.1-0.2,0.1-0.2
			c0.1-0.1,0.1-0.1,0.2-0.1c0.1,0,0.2-0.1,0.2-0.1c0.1,0,0.2,0,0.3,0.1c0.1,0,0.1,0.1,0.2,0.1c0.1,0.1,0.1,0.1,0.1,0.2
			c0,0.1,0.1,0.2,0.1,0.3L22.5,15.8z M26,15.2c-0.1-0.1-0.1-0.2-0.2-0.3c-0.1-0.1-0.2-0.1-0.4-0.1c-0.1,0-0.2,0-0.2,0
			c-0.1,0-0.1,0-0.2,0.1c-0.1,0-0.1,0.1-0.1,0.1c0,0-0.1,0.1-0.1,0.1l0-0.3l-0.3,0l0,2l0.3,0l0-1.1c0-0.1,0-0.2,0-0.3
			c0-0.1,0.1-0.1,0.1-0.2c0.1-0.1,0.1-0.1,0.2-0.1c0.1,0,0.1,0,0.2,0c0.2,0,0.3,0.1,0.4,0.2c0.1,0.1,0.1,0.2,0.1,0.4l0,1.2l0.3,0
			l0-1.2c0-0.1,0-0.2,0-0.3c0-0.1,0.1-0.1,0.1-0.2c0.1-0.1,0.1-0.1,0.2-0.1c0.1,0,0.1,0,0.2,0c0.2,0,0.3,0.1,0.4,0.2
			c0.1,0.1,0.1,0.3,0.1,0.4l0,1.2l0.3,0l0-1.2c0-0.3-0.1-0.4-0.2-0.6c-0.1-0.1-0.3-0.2-0.5-0.2c-0.1,0-0.2,0-0.2,0
			c-0.1,0-0.1,0-0.2,0.1c-0.1,0-0.1,0.1-0.2,0.1C26,15.1,26,15.2,26,15.2z"/>
		<path class="st2" d="M65.5,16.8l0.9-0.9c0.1-0.1,0.1-0.3,0-0.4l-0.9-0.9"/>
		<path class="st1" d="M1.7,20.7l68.7-0.3c0.9,0,1.7,0.7,1.7,1.7l0,6.1c0,0.9-0.7,1.7-1.7,1.7L1.7,30.1c-0.9,0-1.7-0.7-1.7-1.7
			l0-6.1C0,21.4,0.8,20.7,1.7,20.7z"/>
		<path class="st2" d="M7.3,25.1l-2.2,0l0,1.1c0,0.4,0.1,0.6,0.6,0.6l1.1,0c0.4,0,0.6-0.1,0.6-0.6L7.3,25.1z"/>
		<path class="st2" d="M7.5,24.7l0,0.1c0,0.2-0.1,0.3-0.3,0.3l-2.1,0c-0.2,0-0.3-0.1-0.3-0.3l0-0.1c0-0.2,0.1-0.3,0.3-0.3l2.1,0
			C7.4,24.4,7.5,24.5,7.5,24.7z"/>
		<path class="st2" d="M6.1,24.4l-0.8,0c0-0.1,0-0.1,0-0.2L5.5,24C5.6,24,5.7,24,5.7,24L6.1,24.4z"/>
		<path class="st2" d="M7,24.4l-0.8,0L6.6,24C6.6,24,6.7,24,6.8,24L7,24.2C7,24.3,7,24.4,7,24.4z"/>
		<path class="st2" d="M5.7,25.1l0,0.7c0,0.1,0.1,0.2,0.2,0.1l0.1-0.1c0,0,0.1,0,0.2,0l0.1,0.1c0.1,0.1,0.2,0,0.2-0.1l0-0.7
			L5.7,25.1z"/>
		<path class="st3" d="M11.9,24.2l0,2.2l0.3,0l0-2.7l-0.3,0l-1,1.5l-1-1.5l-0.3,0l0,2.7l0.3,0l0-2.2l1,1.4l0,0L11.9,24.2z
			 M12.9,25.5l1.6,0c0,0,0,0,0-0.1c0,0,0,0,0,0c0-0.1,0-0.3-0.1-0.4c0-0.1-0.1-0.2-0.2-0.3c-0.1-0.1-0.2-0.2-0.3-0.2
			c-0.1-0.1-0.2-0.1-0.4-0.1c-0.1,0-0.3,0-0.4,0.1c-0.1,0.1-0.2,0.1-0.3,0.2c-0.1,0.1-0.2,0.2-0.2,0.3c0,0.1-0.1,0.3-0.1,0.4
			c0,0.2,0,0.3,0.1,0.4c0.1,0.1,0.1,0.2,0.2,0.3c0.1,0.1,0.2,0.2,0.3,0.2c0.1,0,0.3,0.1,0.4,0.1c0.2,0,0.4,0,0.5-0.1
			c0.1-0.1,0.2-0.2,0.3-0.3l-0.2-0.2c-0.1,0.1-0.2,0.2-0.3,0.2c-0.1,0.1-0.2,0.1-0.4,0.1c-0.1,0-0.2,0-0.3,0c-0.1,0-0.2-0.1-0.2-0.1
			c-0.1-0.1-0.1-0.1-0.2-0.2C12.9,25.7,12.9,25.6,12.9,25.5z M12.9,25.3c0-0.1,0-0.2,0.1-0.3c0-0.1,0.1-0.2,0.1-0.2
			c0.1-0.1,0.1-0.1,0.2-0.1c0.1,0,0.2-0.1,0.2-0.1c0.1,0,0.2,0,0.3,0.1c0.1,0,0.1,0.1,0.2,0.1c0.1,0.1,0.1,0.1,0.1,0.2
			c0,0.1,0.1,0.2,0.1,0.3L12.9,25.3z M15.1,25.2c0-0.1,0-0.2,0-0.3c0-0.1,0.1-0.1,0.1-0.2c0.1-0.1,0.1-0.1,0.2-0.1
			c0.1,0,0.2,0,0.2,0c0.2,0,0.3,0.1,0.4,0.2c0.1,0.1,0.1,0.3,0.1,0.4l0,1.2l0.3,0l0-1.2c0-0.1,0-0.2-0.1-0.3c0-0.1-0.1-0.2-0.2-0.3
			c-0.1-0.1-0.1-0.1-0.2-0.2c-0.1,0-0.2-0.1-0.3-0.1c-0.2,0-0.3,0-0.4,0.1c-0.1,0.1-0.2,0.2-0.3,0.3l0-0.3l-0.3,0l0,2l0.3,0
			L15.1,25.2z M18.4,25.5c0,0.1,0,0.2,0,0.3c0,0.1-0.1,0.1-0.1,0.2c-0.1,0.1-0.1,0.1-0.2,0.1c-0.1,0-0.2,0-0.2,0
			c-0.2,0-0.3-0.1-0.4-0.2c-0.1-0.1-0.1-0.3-0.1-0.4l0-1.2l-0.3,0l0,1.2c0,0.1,0,0.2,0.1,0.3c0,0.1,0.1,0.2,0.2,0.3
			c0.1,0.1,0.1,0.1,0.2,0.2c0.1,0,0.2,0.1,0.3,0.1c0.2,0,0.3,0,0.4-0.1c0.1-0.1,0.2-0.2,0.3-0.3l0,0.3l0.3,0l0-2l-0.3,0L18.4,25.5z
			 M20.5,23.9l0-0.3l-0.3,0l0,0.3L20.5,23.9z M20.5,26.3l0-2l-0.3,0l0,2L20.5,26.3z M21.4,24.6l0.6,0l0-0.3l-0.6,0l0-0.6l-0.3,0
			l0,0.6l-0.3,0l0,0.3l0.3,0l0,1.2c0,0.1,0,0.2,0,0.3c0,0.1,0.1,0.1,0.1,0.2c0.1,0,0.1,0.1,0.2,0.1c0.1,0,0.1,0,0.2,0
			c0.1,0,0.1,0,0.2,0c0.1,0,0.1,0,0.2-0.1l0-0.3c-0.1,0-0.1,0-0.1,0.1c0,0-0.1,0-0.1,0c-0.1,0-0.2,0-0.2-0.1c-0.1,0-0.1-0.1-0.1-0.3
			L21.4,24.6z M22.5,25.4l1.6,0c0,0,0,0,0-0.1c0,0,0,0,0,0c0-0.1,0-0.3-0.1-0.4c0-0.1-0.1-0.2-0.2-0.3c-0.1-0.1-0.2-0.2-0.3-0.2
			c-0.1-0.1-0.2-0.1-0.4-0.1c-0.1,0-0.3,0-0.4,0.1c-0.1,0.1-0.2,0.1-0.3,0.2c-0.1,0.1-0.2,0.2-0.2,0.3c0,0.1-0.1,0.3-0.1,0.4
			c0,0.2,0,0.3,0.1,0.4c0.1,0.1,0.1,0.2,0.2,0.3c0.1,0.1,0.2,0.2,0.3,0.2c0.1,0,0.3,0.1,0.4,0.1c0.2,0,0.4,0,0.5-0.1
			c0.1-0.1,0.2-0.2,0.3-0.3l-0.2-0.2c-0.1,0.1-0.2,0.2-0.3,0.2c-0.1,0.1-0.2,0.1-0.4,0.1c-0.1,0-0.2,0-0.3,0c-0.1,0-0.2-0.1-0.2-0.1
			c-0.1-0.1-0.1-0.1-0.2-0.2C22.5,25.6,22.5,25.5,22.5,25.4z M22.5,25.2c0-0.1,0-0.2,0.1-0.3c0-0.1,0.1-0.2,0.1-0.2
			c0.1-0.1,0.1-0.1,0.2-0.1c0.1,0,0.2-0.1,0.2-0.1c0.1,0,0.2,0,0.3,0.1c0.1,0,0.1,0.1,0.2,0.1c0.1,0.1,0.1,0.1,0.1,0.2
			c0,0.1,0.1,0.2,0.1,0.3L22.5,25.2z M26,24.7c-0.1-0.1-0.1-0.2-0.2-0.3c-0.1-0.1-0.2-0.1-0.4-0.1c-0.1,0-0.2,0-0.2,0
			c-0.1,0-0.1,0-0.2,0.1c-0.1,0-0.1,0.1-0.1,0.1c0,0-0.1,0.1-0.1,0.1l0-0.3l-0.3,0l0,2l0.3,0l0-1.1c0-0.1,0-0.2,0-0.3
			c0-0.1,0.1-0.1,0.1-0.2c0.1-0.1,0.1-0.1,0.2-0.1c0.1,0,0.1,0,0.2,0c0.2,0,0.3,0.1,0.4,0.2c0.1,0.1,0.1,0.2,0.1,0.4l0,1.2l0.3,0
			l0-1.2c0-0.1,0-0.2,0-0.3c0-0.1,0.1-0.1,0.1-0.2c0.1-0.1,0.1-0.1,0.2-0.1c0.1,0,0.1,0,0.2,0c0.2,0,0.3,0.1,0.4,0.2
			c0.1,0.1,0.1,0.3,0.1,0.4l0,1.2l0.3,0l0-1.2c0-0.3-0.1-0.4-0.2-0.6c-0.1-0.1-0.3-0.2-0.5-0.2c-0.1,0-0.2,0-0.2,0
			c-0.1,0-0.1,0-0.2,0.1c-0.1,0-0.1,0.1-0.2,0.1C26.1,24.6,26,24.6,26,24.7z"/>
		<path class="st2" d="M65.6,26.3l0.9-0.9c0.1-0.1,0.1-0.3,0-0.4l-0.9-0.9"/>
		<path class="st1" d="M1.9,77.2l68.7-0.3c0.9,0,1.7,0.7,1.7,1.7l0,6.1c0,0.9-0.7,1.7-1.7,1.7L2,86.6c-0.9,0-1.7-0.7-1.7-1.7l0-6.1
			C0.3,78,1,77.2,1.9,77.2z"/>
		<path class="st2" d="M7.5,81.6l-2.2,0l0,1.1c0,0.4,0.1,0.6,0.6,0.6l1.1,0c0.4,0,0.6-0.1,0.6-0.6L7.5,81.6z"/>
		<path class="st2" d="M7.7,81.2l0,0.1c0,0.2-0.1,0.3-0.3,0.3l-2.1,0c-0.2,0-0.3-0.1-0.3-0.3l0-0.1c0-0.2,0.1-0.3,0.3-0.3l2.1,0
			C7.6,80.9,7.7,81,7.7,81.2z"/>
		<path class="st2" d="M6.3,80.9l-0.8,0c0-0.1,0-0.1,0-0.2l0.2-0.2c0.1-0.1,0.1-0.1,0.2,0L6.3,80.9z"/>
		<path class="st2" d="M7.2,80.9l-0.8,0l0.4-0.4c0.1-0.1,0.1-0.1,0.2,0l0.2,0.2C7.2,80.8,7.2,80.9,7.2,80.9z"/>
		<path class="st2" d="M5.9,81.6l0,0.7c0,0.1,0.1,0.2,0.2,0.1l0.1-0.1c0,0,0.1,0,0.2,0l0.1,0.1c0.1,0.1,0.2,0,0.2-0.1l0-0.7
			L5.9,81.6z"/>
		<path class="st3" d="M12.1,80.7l0,2.2l0.3,0l0-2.7l-0.3,0l-1,1.5l-1-1.5l-0.3,0l0,2.7l0.3,0l0-2.2l1,1.4l0,0L12.1,80.7z M13.1,82
			l1.6,0c0,0,0,0,0-0.1c0,0,0,0,0,0c0-0.1,0-0.3-0.1-0.4s-0.1-0.2-0.2-0.3c-0.1-0.1-0.2-0.2-0.3-0.2c-0.1-0.1-0.2-0.1-0.4-0.1
			c-0.1,0-0.3,0-0.4,0.1c-0.1,0.1-0.2,0.1-0.3,0.2c-0.1,0.1-0.2,0.2-0.2,0.3c0,0.1-0.1,0.3-0.1,0.4c0,0.2,0,0.3,0.1,0.4
			c0.1,0.1,0.1,0.2,0.2,0.3c0.1,0.1,0.2,0.2,0.3,0.2c0.1,0,0.3,0.1,0.4,0.1c0.2,0,0.4,0,0.5-0.1c0.1-0.1,0.2-0.2,0.3-0.3l-0.2-0.2
			c-0.1,0.1-0.2,0.2-0.3,0.2c-0.1,0.1-0.2,0.1-0.4,0.1c-0.1,0-0.2,0-0.3,0c-0.1,0-0.2-0.1-0.2-0.1c-0.1-0.1-0.1-0.1-0.2-0.2
			C13.1,82.2,13.1,82.1,13.1,82z M13.1,81.8c0-0.1,0-0.2,0.1-0.3c0-0.1,0.1-0.2,0.1-0.2c0.1-0.1,0.1-0.1,0.2-0.1
			c0.1,0,0.2-0.1,0.2-0.1c0.1,0,0.2,0,0.3,0.1c0.1,0,0.1,0.1,0.2,0.1c0.1,0.1,0.1,0.1,0.1,0.2c0,0.1,0.1,0.2,0.1,0.3L13.1,81.8z
			 M15.3,81.7c0-0.1,0-0.2,0-0.3c0-0.1,0.1-0.1,0.1-0.2c0.1-0.1,0.1-0.1,0.2-0.1c0.1,0,0.2,0,0.2,0c0.2,0,0.3,0.1,0.4,0.2
			c0.1,0.1,0.1,0.3,0.1,0.4l0,1.2l0.3,0l0-1.2c0-0.1,0-0.2-0.1-0.3c0-0.1-0.1-0.2-0.2-0.3c-0.1-0.1-0.1-0.1-0.2-0.2
			c-0.1,0-0.2-0.1-0.3-0.1c-0.2,0-0.3,0-0.4,0.1c-0.1,0.1-0.2,0.2-0.3,0.3l0-0.3l-0.3,0l0,2l0.3,0L15.3,81.7z M18.6,82
			c0,0.1,0,0.2,0,0.3c0,0.1-0.1,0.1-0.1,0.2c-0.1,0.1-0.1,0.1-0.2,0.1c-0.1,0-0.2,0-0.2,0c-0.2,0-0.3-0.1-0.4-0.2
			c-0.1-0.1-0.1-0.3-0.1-0.4l0-1.2l-0.3,0l0,1.2c0,0.1,0,0.2,0.1,0.3c0,0.1,0.1,0.2,0.2,0.3c0.1,0.1,0.1,0.1,0.2,0.2
			c0.1,0,0.2,0.1,0.3,0.1c0.2,0,0.3,0,0.4-0.1c0.1-0.1,0.2-0.2,0.3-0.3l0,0.3l0.3,0l0-2l-0.3,0L18.6,82z M20.7,80.4l0-0.3l-0.3,0
			l0,0.3L20.7,80.4z M20.7,82.9l0-2l-0.3,0l0,2L20.7,82.9z M21.6,81.1l0.6,0l0-0.3l-0.6,0l0-0.6l-0.3,0l0,0.6l-0.3,0l0,0.3l0.3,0
			l0,1.2c0,0.1,0,0.2,0,0.3c0,0.1,0.1,0.1,0.1,0.2c0.1,0,0.1,0.1,0.2,0.1c0.1,0,0.1,0,0.2,0c0.1,0,0.1,0,0.2,0c0.1,0,0.1,0,0.2-0.1
			l0-0.3c-0.1,0-0.1,0-0.1,0.1c0,0-0.1,0-0.1,0c-0.1,0-0.2,0-0.2-0.1c-0.1,0-0.1-0.1-0.1-0.3L21.6,81.1z M22.7,82l1.6,0
			c0,0,0,0,0-0.1c0,0,0,0,0,0c0-0.1,0-0.3-0.1-0.4c0-0.1-0.1-0.2-0.2-0.3c-0.1-0.1-0.2-0.2-0.3-0.2c-0.1-0.1-0.2-0.1-0.4-0.1
			c-0.1,0-0.3,0-0.4,0.1c-0.1,0.1-0.2,0.1-0.3,0.2c-0.1,0.1-0.2,0.2-0.2,0.3c0,0.1-0.1,0.3-0.1,0.4c0,0.2,0,0.3,0.1,0.4
			c0.1,0.1,0.1,0.2,0.2,0.3c0.1,0.1,0.2,0.2,0.3,0.2c0.1,0,0.3,0.1,0.4,0.1c0.2,0,0.4,0,0.5-0.1c0.1-0.1,0.2-0.2,0.3-0.3L24,82.3
			c-0.1,0.1-0.2,0.2-0.3,0.2c-0.1,0.1-0.2,0.1-0.4,0.1c-0.1,0-0.2,0-0.3,0c-0.1,0-0.2-0.1-0.2-0.1c-0.1-0.1-0.1-0.1-0.2-0.2
			C22.7,82.2,22.7,82.1,22.7,82z M22.7,81.7c0-0.1,0-0.2,0.1-0.3c0-0.1,0.1-0.2,0.1-0.2c0.1-0.1,0.1-0.1,0.2-0.1
			c0.1,0,0.2-0.1,0.2-0.1c0.1,0,0.2,0,0.3,0.1c0.1,0,0.1,0.1,0.2,0.1c0.1,0.1,0.1,0.1,0.1,0.2c0,0.1,0.1,0.2,0.1,0.3L22.7,81.7z
			 M26.2,81.2c-0.1-0.1-0.1-0.2-0.2-0.3c-0.1-0.1-0.2-0.1-0.4-0.1c-0.1,0-0.2,0-0.2,0c-0.1,0-0.1,0-0.2,0.1c-0.1,0-0.1,0.1-0.1,0.1
			c0,0-0.1,0.1-0.1,0.1l0-0.3l-0.3,0l0,2l0.3,0l0-1.1c0-0.1,0-0.2,0-0.3c0-0.1,0.1-0.1,0.1-0.2c0.1-0.1,0.1-0.1,0.2-0.1
			c0.1,0,0.1,0,0.2,0c0.2,0,0.3,0.1,0.4,0.2c0.1,0.1,0.1,0.2,0.1,0.4l0,1.2l0.3,0l0-1.2c0-0.1,0-0.2,0-0.3c0-0.1,0.1-0.1,0.1-0.2
			c0.1-0.1,0.1-0.1,0.2-0.1c0.1,0,0.1,0,0.2,0c0.2,0,0.3,0.1,0.4,0.2c0.1,0.1,0.1,0.3,0.1,0.4l0,1.2l0.3,0l0-1.2
			c0-0.3-0.1-0.4-0.2-0.6c-0.1-0.1-0.3-0.2-0.5-0.2c-0.1,0-0.2,0-0.2,0c-0.1,0-0.1,0-0.2,0.1c-0.1,0-0.1,0.1-0.2,0.1
			C26.3,81.1,26.3,81.1,26.2,81.2z"/>
		<path class="st2" d="M65.8,82.8l0.9-0.9c0.1-0.1,0.1-0.3,0-0.4l-0.9-0.9"/>
		<path class="st1" d="M1.9,67.8l68.7-0.3c0.9,0,1.7,0.7,1.7,1.7l0,6.1c0,0.9-0.7,1.7-1.7,1.7L1.9,77.2c-0.9,0-1.7-0.7-1.7-1.7
			l0-6.1C0.2,68.5,1,67.8,1.9,67.8z"/>
		<path class="st2" d="M7.4,72.2l-2.2,0l0,1.1c0,0.4,0.1,0.6,0.6,0.6l1.1,0c0.4,0,0.6-0.1,0.6-0.6L7.4,72.2z"/>
		<path class="st2" d="M7.6,71.8l0,0.1c0,0.2-0.1,0.3-0.3,0.3l-2.1,0c-0.2,0-0.3-0.1-0.3-0.3l0-0.1c0-0.2,0.1-0.3,0.3-0.3l2.1,0
			C7.6,71.5,7.6,71.6,7.6,71.8z"/>
		<path class="st2" d="M6.3,71.5l-0.8,0c0-0.1,0-0.1,0-0.2l0.2-0.2c0.1-0.1,0.1-0.1,0.2,0L6.3,71.5z"/>
		<path class="st2" d="M7.1,71.5l-0.8,0l0.4-0.4c0.1-0.1,0.1-0.1,0.2,0l0.2,0.2C7.2,71.4,7.2,71.5,7.1,71.5z"/>
		<path class="st2" d="M5.9,72.2l0,0.7C5.9,73,6,73.1,6.1,73l0.1-0.1c0,0,0.1,0,0.2,0L6.5,73c0.1,0.1,0.2,0,0.2-0.1l0-0.7L5.9,72.2z
			"/>
		<path class="st3" d="M12.1,71.3l0,2.2l0.3,0l0-2.7l-0.3,0l-1,1.5l-1-1.5l-0.3,0l0,2.7l0.3,0l0-2.2l1,1.4l0,0L12.1,71.3z
			 M13.1,72.6l1.6,0c0,0,0,0,0-0.1c0,0,0,0,0,0c0-0.1,0-0.3-0.1-0.4c0-0.1-0.1-0.2-0.2-0.3c-0.1-0.1-0.2-0.2-0.3-0.2
			c-0.1-0.1-0.2-0.1-0.4-0.1c-0.1,0-0.3,0-0.4,0.1c-0.1,0.1-0.2,0.1-0.3,0.2c-0.1,0.1-0.2,0.2-0.2,0.3c0,0.1-0.1,0.3-0.1,0.4
			c0,0.2,0,0.3,0.1,0.4c0.1,0.1,0.1,0.2,0.2,0.3c0.1,0.1,0.2,0.2,0.3,0.2c0.1,0,0.3,0.1,0.4,0.1c0.2,0,0.4,0,0.5-0.1
			c0.1-0.1,0.2-0.2,0.3-0.3L14.4,73c-0.1,0.1-0.2,0.2-0.3,0.2c-0.1,0.1-0.2,0.1-0.4,0.1c-0.1,0-0.2,0-0.3,0c-0.1,0-0.2-0.1-0.2-0.1
			c-0.1-0.1-0.1-0.1-0.2-0.2C13.1,72.8,13.1,72.7,13.1,72.6z M13.1,72.3c0-0.1,0-0.2,0.1-0.3c0-0.1,0.1-0.2,0.1-0.2
			c0.1-0.1,0.1-0.1,0.2-0.1c0.1,0,0.2-0.1,0.2-0.1c0.1,0,0.2,0,0.3,0.1c0.1,0,0.1,0.1,0.2,0.1c0.1,0.1,0.1,0.1,0.1,0.2
			c0,0.1,0.1,0.2,0.1,0.3L13.1,72.3z M15.3,72.3c0-0.1,0-0.2,0-0.3c0-0.1,0.1-0.1,0.1-0.2c0.1-0.1,0.1-0.1,0.2-0.1
			c0.1,0,0.2,0,0.2,0c0.2,0,0.3,0.1,0.4,0.2c0.1,0.1,0.1,0.3,0.1,0.4l0,1.2l0.3,0l0-1.2c0-0.1,0-0.2-0.1-0.3c0-0.1-0.1-0.2-0.2-0.3
			c-0.1-0.1-0.1-0.1-0.2-0.2c-0.1,0-0.2-0.1-0.3-0.1c-0.2,0-0.3,0-0.4,0.1c-0.1,0.1-0.2,0.2-0.3,0.3l0-0.3l-0.3,0l0,2l0.3,0
			L15.3,72.3z M18.6,72.6c0,0.1,0,0.2,0,0.3c0,0.1-0.1,0.1-0.1,0.2c-0.1,0.1-0.1,0.1-0.2,0.1c-0.1,0-0.2,0-0.2,0
			c-0.2,0-0.3-0.1-0.4-0.2c-0.1-0.1-0.1-0.3-0.1-0.4l0-1.2l-0.3,0l0,1.2c0,0.1,0,0.2,0.1,0.3c0,0.1,0.1,0.2,0.2,0.3
			c0.1,0.1,0.1,0.1,0.2,0.2c0.1,0,0.2,0.1,0.3,0.1c0.2,0,0.3,0,0.4-0.1c0.1-0.1,0.2-0.2,0.3-0.3l0,0.3l0.3,0l0-2l-0.3,0L18.6,72.6z
			 M20.7,71l0-0.3l-0.3,0l0,0.3L20.7,71z M20.7,73.4l0-2l-0.3,0l0,2L20.7,73.4z M21.6,71.7l0.6,0l0-0.3l-0.6,0l0-0.6l-0.3,0l0,0.6
			l-0.3,0l0,0.3l0.3,0l0,1.2c0,0.1,0,0.2,0,0.3c0,0.1,0.1,0.1,0.1,0.2c0.1,0,0.1,0.1,0.2,0.1c0.1,0,0.1,0,0.2,0c0.1,0,0.1,0,0.2,0
			c0.1,0,0.1,0,0.2-0.1l0-0.3c-0.1,0-0.1,0-0.1,0.1c0,0-0.1,0-0.1,0c-0.1,0-0.2,0-0.2-0.1c-0.1,0-0.1-0.1-0.1-0.3L21.6,71.7z
			 M22.7,72.5l1.6,0c0,0,0,0,0-0.1c0,0,0,0,0,0c0-0.1,0-0.3-0.1-0.4c0-0.1-0.1-0.2-0.2-0.3c-0.1-0.1-0.2-0.2-0.3-0.2
			c-0.1-0.1-0.2-0.1-0.4-0.1c-0.1,0-0.3,0-0.4,0.1c-0.1,0.1-0.2,0.1-0.3,0.2c-0.1,0.1-0.2,0.2-0.2,0.3c0,0.1-0.1,0.3-0.1,0.4
			c0,0.2,0,0.3,0.1,0.4c0.1,0.1,0.1,0.2,0.2,0.3c0.1,0.1,0.2,0.2,0.3,0.2c0.1,0,0.3,0.1,0.4,0.1c0.2,0,0.4,0,0.5-0.1
			c0.1-0.1,0.2-0.2,0.3-0.3L24,72.9c-0.1,0.1-0.2,0.2-0.3,0.2c-0.1,0.1-0.2,0.1-0.4,0.1c-0.1,0-0.2,0-0.3,0c-0.1,0-0.2-0.1-0.2-0.1
			c-0.1-0.1-0.1-0.1-0.2-0.2C22.7,72.7,22.7,72.6,22.7,72.5z M22.7,72.3c0-0.1,0-0.2,0.1-0.3c0-0.1,0.1-0.2,0.1-0.2
			c0.1-0.1,0.1-0.1,0.2-0.1c0.1,0,0.2-0.1,0.2-0.1c0.1,0,0.2,0,0.3,0.1c0.1,0,0.1,0.1,0.2,0.1c0.1,0.1,0.1,0.1,0.1,0.2
			c0,0.1,0.1,0.2,0.1,0.3L22.7,72.3z M26.2,71.8c-0.1-0.1-0.1-0.2-0.2-0.3c-0.1-0.1-0.2-0.1-0.4-0.1c-0.1,0-0.2,0-0.2,0
			c-0.1,0-0.1,0-0.2,0.1c-0.1,0-0.1,0.1-0.1,0.1c0,0-0.1,0.1-0.1,0.1l0-0.3l-0.3,0l0,2l0.3,0l0-1.1c0-0.1,0-0.2,0-0.3
			c0-0.1,0.1-0.1,0.1-0.2c0.1-0.1,0.1-0.1,0.2-0.1c0.1,0,0.1,0,0.2,0c0.2,0,0.3,0.1,0.4,0.2c0.1,0.1,0.1,0.2,0.1,0.4l0,1.2l0.3,0
			l0-1.2c0-0.1,0-0.2,0-0.3c0-0.1,0.1-0.1,0.1-0.2c0.1-0.1,0.1-0.1,0.2-0.1c0.1,0,0.1,0,0.2,0c0.2,0,0.3,0.1,0.4,0.2
			c0.1,0.1,0.1,0.3,0.1,0.4l0,1.2l0.3,0l0-1.2c0-0.3-0.1-0.4-0.2-0.6c-0.1-0.1-0.3-0.2-0.5-0.2c-0.1,0-0.2,0-0.2,0
			c-0.1,0-0.1,0-0.2,0.1c-0.1,0-0.1,0.1-0.2,0.1C26.3,71.7,26.2,71.7,26.2,71.8z"/>
		<path class="st2" d="M65.7,73.3l0.9-0.9c0.1-0.1,0.1-0.3,0-0.4l-0.9-0.9"/>
		<path class="st4" d="M1.7,30.1l68.7-0.3c0.9,0,1.7,0.7,1.7,1.7l0,6.1c0,0.9-0.7,1.7-1.7,1.7L1.8,39.5c-0.9,0-1.7-0.7-1.7-1.7
			l0-6.1C0.1,30.9,0.8,30.1,1.7,30.1z"/>
		<path class="st5" d="M7.3,34.5l-2.2,0l0,1.1c0,0.4,0.1,0.6,0.6,0.6l1.1,0c0.4,0,0.6-0.1,0.6-0.6L7.3,34.5z"/>
		<path class="st5" d="M7.5,34.1l0,0.1c0,0.2-0.1,0.3-0.3,0.3l-2.1,0c-0.2,0-0.3-0.1-0.3-0.3l0-0.1c0-0.2,0.1-0.3,0.3-0.3l2.1,0
			C7.4,33.8,7.5,33.9,7.5,34.1z"/>
		<path class="st5" d="M6.1,33.8l-0.8,0c0-0.1,0-0.1,0-0.2l0.2-0.2c0.1-0.1,0.1-0.1,0.2,0L6.1,33.8z"/>
		<path class="st5" d="M7,33.8l-0.8,0l0.4-0.4c0.1-0.1,0.1-0.1,0.2,0L7,33.6C7,33.7,7,33.8,7,33.8z"/>
		<path class="st5" d="M5.8,34.5l0,0.7c0,0.1,0.1,0.2,0.2,0.1l0.1-0.1c0,0,0.1,0,0.2,0l0.1,0.1c0.1,0.1,0.2,0,0.2-0.1l0-0.7
			L5.8,34.5z"/>
		<path class="st1" d="M11.9,33.6l0,2.2l0.3,0l0-2.7l-0.3,0l-1,1.5l-1-1.5l-0.3,0l0,2.7l0.3,0l0-2.2l1,1.4l0,0L11.9,33.6z
			 M12.9,34.9l1.6,0c0,0,0,0,0-0.1c0,0,0,0,0,0c0-0.1,0-0.3-0.1-0.4c0-0.1-0.1-0.2-0.2-0.3c-0.1-0.1-0.2-0.2-0.3-0.2
			c-0.1-0.1-0.2-0.1-0.4-0.1c-0.1,0-0.3,0-0.4,0.1c-0.1,0.1-0.2,0.1-0.3,0.2c-0.1,0.1-0.2,0.2-0.2,0.3c0,0.1-0.1,0.3-0.1,0.4
			c0,0.2,0,0.3,0.1,0.4c0.1,0.1,0.1,0.2,0.2,0.3c0.1,0.1,0.2,0.2,0.3,0.2c0.1,0,0.3,0.1,0.4,0.1c0.2,0,0.4,0,0.5-0.1
			c0.1-0.1,0.2-0.2,0.3-0.3l-0.2-0.2c-0.1,0.1-0.2,0.2-0.3,0.2c-0.1,0.1-0.2,0.1-0.4,0.1c-0.1,0-0.2,0-0.3,0c-0.1,0-0.2-0.1-0.2-0.1
			c-0.1-0.1-0.1-0.1-0.2-0.2C13,35.1,12.9,35,12.9,34.9z M12.9,34.7c0-0.1,0-0.2,0.1-0.3c0-0.1,0.1-0.2,0.1-0.2
			c0.1-0.1,0.1-0.1,0.2-0.1c0.1,0,0.2-0.1,0.2-0.1c0.1,0,0.2,0,0.3,0.1c0.1,0,0.1,0.1,0.2,0.1c0.1,0.1,0.1,0.1,0.1,0.2
			c0,0.1,0.1,0.2,0.1,0.3L12.9,34.7z M15.1,34.6c0-0.1,0-0.2,0-0.3c0-0.1,0.1-0.1,0.1-0.2c0.1-0.1,0.1-0.1,0.2-0.1
			c0.1,0,0.2,0,0.2,0c0.2,0,0.3,0.1,0.4,0.2c0.1,0.1,0.1,0.3,0.1,0.4l0,1.2l0.3,0l0-1.2c0-0.1,0-0.2-0.1-0.3c0-0.1-0.1-0.2-0.2-0.3
			c-0.1-0.1-0.1-0.1-0.2-0.2c-0.1,0-0.2-0.1-0.3-0.1c-0.2,0-0.3,0-0.4,0.1c-0.1,0.1-0.2,0.2-0.3,0.3l0-0.3l-0.3,0l0,2l0.3,0
			L15.1,34.6z M18.5,34.9c0,0.1,0,0.2,0,0.3c0,0.1-0.1,0.1-0.1,0.2c-0.1,0.1-0.1,0.1-0.2,0.1c-0.1,0-0.2,0-0.2,0
			c-0.2,0-0.3-0.1-0.4-0.2c-0.1-0.1-0.1-0.3-0.1-0.4l0-1.2l-0.3,0l0,1.2c0,0.1,0,0.2,0.1,0.3c0,0.1,0.1,0.2,0.2,0.3
			c0.1,0.1,0.1,0.1,0.2,0.2c0.1,0,0.2,0.1,0.3,0.1c0.2,0,0.3,0,0.4-0.1c0.1-0.1,0.2-0.2,0.3-0.3l0,0.3l0.3,0l0-2l-0.3,0L18.5,34.9z
			 M20.6,33.3l0-0.3l-0.3,0l0,0.3L20.6,33.3z M20.5,35.8l0-2l-0.3,0l0,2L20.5,35.8z M21.4,34l0.6,0l0-0.3l-0.6,0l0-0.6l-0.3,0l0,0.6
			l-0.3,0l0,0.3l0.3,0l0,1.2c0,0.1,0,0.2,0,0.3c0,0.1,0.1,0.1,0.1,0.2c0.1,0,0.1,0.1,0.2,0.1c0.1,0,0.1,0,0.2,0c0.1,0,0.1,0,0.2,0
			c0.1,0,0.1,0,0.2-0.1l0-0.3c-0.1,0-0.1,0-0.1,0.1c0,0-0.1,0-0.1,0c-0.1,0-0.2,0-0.2-0.1c-0.1,0-0.1-0.1-0.1-0.3L21.4,34z
			 M22.5,34.9l1.6,0c0,0,0,0,0-0.1c0,0,0,0,0,0c0-0.1,0-0.3-0.1-0.4c0-0.1-0.1-0.2-0.2-0.3c-0.1-0.1-0.2-0.2-0.3-0.2
			c-0.1-0.1-0.2-0.1-0.4-0.1c-0.1,0-0.3,0-0.4,0.1c-0.1,0.1-0.2,0.1-0.3,0.2c-0.1,0.1-0.2,0.2-0.2,0.3c0,0.1-0.1,0.3-0.1,0.4
			c0,0.2,0,0.3,0.1,0.4c0.1,0.1,0.1,0.2,0.2,0.3c0.1,0.1,0.2,0.2,0.3,0.2c0.1,0,0.3,0.1,0.4,0.1c0.2,0,0.4,0,0.5-0.1
			c0.1-0.1,0.2-0.2,0.3-0.3l-0.2-0.2c-0.1,0.1-0.2,0.2-0.3,0.2c-0.1,0.1-0.2,0.1-0.4,0.1c-0.1,0-0.2,0-0.3,0c-0.1,0-0.2-0.1-0.2-0.1
			c-0.1-0.1-0.1-0.1-0.2-0.2C22.6,35.1,22.5,35,22.5,34.9z M22.5,34.6c0-0.1,0-0.2,0.1-0.3c0-0.1,0.1-0.2,0.1-0.2
			c0.1-0.1,0.1-0.1,0.2-0.1c0.1,0,0.2-0.1,0.2-0.1c0.1,0,0.2,0,0.3,0.1c0.1,0,0.1,0.1,0.2,0.1c0.1,0.1,0.1,0.1,0.1,0.2
			c0,0.1,0.1,0.2,0.1,0.3L22.5,34.6z M26,34.1c-0.1-0.1-0.1-0.2-0.2-0.3c-0.1-0.1-0.2-0.1-0.4-0.1c-0.1,0-0.2,0-0.2,0
			c-0.1,0-0.1,0-0.2,0.1c-0.1,0-0.1,0.1-0.1,0.1c0,0-0.1,0.1-0.1,0.1l0-0.3l-0.3,0l0,2l0.3,0l0-1.1c0-0.1,0-0.2,0-0.3
			c0-0.1,0.1-0.1,0.1-0.2C25,34.1,25,34,25.1,34c0.1,0,0.1,0,0.2,0c0.2,0,0.3,0.1,0.4,0.2c0.1,0.1,0.1,0.2,0.1,0.4l0,1.2l0.3,0
			l0-1.2c0-0.1,0-0.2,0-0.3c0-0.1,0.1-0.1,0.1-0.2c0.1-0.1,0.1-0.1,0.2-0.1c0.1,0,0.1,0,0.2,0c0.2,0,0.3,0.1,0.4,0.2
			c0.1,0.1,0.1,0.3,0.1,0.4l0,1.2l0.3,0l0-1.2c0-0.3-0.1-0.4-0.2-0.6c-0.1-0.1-0.3-0.2-0.5-0.2c-0.1,0-0.2,0-0.2,0
			c-0.1,0-0.1,0-0.2,0.1c-0.1,0-0.1,0.1-0.2,0.1C26.1,34,26.1,34,26,34.1z"/>
		<path class="st5" d="M67.1,34.1l-0.9,0.9c-0.1,0.1-0.3,0.1-0.4,0l-0.9-0.9"/>
		<path class="st1" d="M1.8,58.6l68.7-0.3c0.8,0,1.4,0.6,1.4,1.4l0,6.1c0,0.8-0.6,1.4-1.4,1.4L1.9,67.5c-0.8,0-1.4-0.6-1.4-1.4
			l0-6.1C0.5,59.3,1.1,58.6,1.8,58.6z"/>
		<path class="st6" d="M11.7,61.8l0,2.2l0.3,0l0-2.7l-0.3,0l-1,1.5l-1-1.5l-0.3,0l0,2.7l0.3,0l0-2.2l1,1.4l0,0L11.7,61.8z
			 M12.8,63.2l1.6,0c0,0,0,0,0-0.1c0,0,0,0,0,0c0-0.1,0-0.3-0.1-0.4c0-0.1-0.1-0.2-0.2-0.3s-0.2-0.2-0.3-0.2
			C13.7,62,13.6,62,13.4,62c-0.1,0-0.3,0-0.4,0.1c-0.1,0.1-0.2,0.1-0.3,0.2c-0.1,0.1-0.2,0.2-0.2,0.3c0,0.1-0.1,0.3-0.1,0.4
			c0,0.2,0,0.3,0.1,0.4c0.1,0.1,0.1,0.2,0.2,0.3c0.1,0.1,0.2,0.2,0.3,0.2c0.1,0,0.3,0.1,0.4,0.1c0.2,0,0.4,0,0.5-0.1
			c0.1-0.1,0.2-0.2,0.3-0.3l-0.2-0.2c-0.1,0.1-0.2,0.2-0.3,0.2c-0.1,0.1-0.2,0.1-0.4,0.1c-0.1,0-0.2,0-0.3,0c-0.1,0-0.2-0.1-0.2-0.1
			c-0.1-0.1-0.1-0.1-0.2-0.2C12.8,63.4,12.8,63.3,12.8,63.2z M12.8,62.9c0-0.1,0-0.2,0.1-0.3c0-0.1,0.1-0.2,0.1-0.2
			c0.1-0.1,0.1-0.1,0.2-0.1c0.1,0,0.2-0.1,0.2-0.1c0.1,0,0.2,0,0.3,0.1c0.1,0,0.1,0.1,0.2,0.1c0.1,0.1,0.1,0.1,0.1,0.2
			c0,0.1,0.1,0.2,0.1,0.3L12.8,62.9z M15,62.9c0-0.1,0-0.2,0-0.3c0-0.1,0.1-0.1,0.1-0.2c0.1-0.1,0.1-0.1,0.2-0.1c0.1,0,0.2,0,0.2,0
			c0.2,0,0.3,0.1,0.4,0.2c0.1,0.1,0.1,0.3,0.1,0.4l0,1.2l0.3,0l0-1.2c0-0.1,0-0.2-0.1-0.3c0-0.1-0.1-0.2-0.2-0.3
			c-0.1-0.1-0.1-0.1-0.2-0.2c-0.1,0-0.2-0.1-0.3-0.1c-0.2,0-0.3,0-0.4,0.1c-0.1,0.1-0.2,0.2-0.3,0.3l0-0.3l-0.3,0l0,2l0.3,0L15,62.9
			z M18.3,63.2c0,0.1,0,0.2,0,0.3c0,0.1-0.1,0.1-0.1,0.2c-0.1,0.1-0.1,0.1-0.2,0.1c-0.1,0-0.2,0-0.2,0c-0.2,0-0.3-0.1-0.4-0.2
			c-0.1-0.1-0.1-0.3-0.1-0.4l0-1.2l-0.3,0l0,1.2c0,0.1,0,0.2,0.1,0.3c0,0.1,0.1,0.2,0.2,0.3c0.1,0.1,0.1,0.1,0.2,0.2
			c0.1,0,0.2,0.1,0.3,0.1c0.2,0,0.3,0,0.4-0.1c0.1-0.1,0.2-0.2,0.3-0.3l0,0.3l0.3,0l0-2l-0.3,0L18.3,63.2z M20.4,61.6l0-0.3l-0.3,0
			l0,0.3L20.4,61.6z M20.4,64l0-2l-0.3,0l0,2L20.4,64z M21.3,62.3l0.6,0l0-0.3l-0.6,0l0-0.6l-0.3,0l0,0.6l-0.3,0l0,0.3l0.3,0l0,1.2
			c0,0.1,0,0.2,0,0.3c0,0.1,0.1,0.1,0.1,0.2c0.1,0,0.1,0.1,0.2,0.1c0.1,0,0.1,0,0.2,0c0.1,0,0.1,0,0.2,0c0.1,0,0.1,0,0.2-0.1l0-0.3
			c-0.1,0-0.1,0-0.1,0.1c0,0-0.1,0-0.1,0c-0.1,0-0.2,0-0.2-0.1c-0.1,0-0.1-0.1-0.1-0.3L21.3,62.3z M22.4,63.1l1.6,0c0,0,0,0,0-0.1
			c0,0,0,0,0,0c0-0.1,0-0.3-0.1-0.4c0-0.1-0.1-0.2-0.2-0.3c-0.1-0.1-0.2-0.2-0.3-0.2C23.3,62,23.2,62,23,62c-0.1,0-0.3,0-0.4,0.1
			c-0.1,0.1-0.2,0.1-0.3,0.2c-0.1,0.1-0.2,0.2-0.2,0.3c0,0.1-0.1,0.3-0.1,0.4c0,0.2,0,0.3,0.1,0.4c0.1,0.1,0.1,0.2,0.2,0.3
			c0.1,0.1,0.2,0.2,0.3,0.2c0.1,0,0.3,0.1,0.4,0.1c0.2,0,0.4,0,0.5-0.1c0.1-0.1,0.2-0.2,0.3-0.3l-0.2-0.2c-0.1,0.1-0.2,0.2-0.3,0.2
			c-0.1,0.1-0.2,0.1-0.4,0.1c-0.1,0-0.2,0-0.3,0c-0.1,0-0.2-0.1-0.2-0.1c-0.1-0.1-0.1-0.1-0.2-0.2C22.4,63.3,22.4,63.2,22.4,63.1z
			 M22.4,62.9c0-0.1,0-0.2,0.1-0.3c0-0.1,0.1-0.2,0.1-0.2c0.1-0.1,0.1-0.1,0.2-0.1c0.1,0,0.2-0.1,0.2-0.1c0.1,0,0.2,0,0.3,0.1
			c0.1,0,0.1,0.1,0.2,0.1c0.1,0.1,0.1,0.1,0.1,0.2c0,0.1,0.1,0.2,0.1,0.3L22.4,62.9z M25.9,62.3c-0.1-0.1-0.1-0.2-0.2-0.3
			c-0.1-0.1-0.2-0.1-0.4-0.1c-0.1,0-0.2,0-0.2,0c-0.1,0-0.1,0-0.2,0.1c-0.1,0-0.1,0.1-0.1,0.1c0,0-0.1,0.1-0.1,0.1l0-0.3l-0.3,0l0,2
			l0.3,0l0-1.1c0-0.1,0-0.2,0-0.3c0-0.1,0.1-0.1,0.1-0.2c0.1-0.1,0.1-0.1,0.2-0.1c0.1,0,0.1,0,0.2,0c0.2,0,0.3,0.1,0.4,0.2
			c0.1,0.1,0.1,0.2,0.1,0.4l0,1.2l0.3,0l0-1.2c0-0.1,0-0.2,0-0.3c0-0.1,0.1-0.1,0.1-0.2c0.1-0.1,0.1-0.1,0.2-0.1c0.1,0,0.1,0,0.2,0
			c0.2,0,0.3,0.1,0.4,0.2c0.1,0.1,0.1,0.3,0.1,0.4l0,1.2l0.3,0l0-1.2c0-0.3-0.1-0.4-0.2-0.6c-0.1-0.1-0.3-0.2-0.5-0.2
			c-0.1,0-0.2,0-0.2,0c-0.1,0-0.1,0-0.2,0.1c-0.1,0-0.1,0.1-0.2,0.1C25.9,62.2,25.9,62.3,25.9,62.3z"/>
		<path class="st7" d="M1.8,58.6l68.7-0.3c0.8,0,1.4,0.6,1.4,1.4l0,6.1c0,0.8-0.6,1.4-1.4,1.4L1.9,67.5c-0.8,0-1.4-0.6-1.4-1.4
			l0-6.1C0.5,59.3,1.1,58.6,1.8,58.6z"/>
		<path class="st1" d="M1.8,39.5l68.7-0.3c0.9,0,1.7,0.7,1.7,1.7l0,6.1c0,0.9-0.7,1.7-1.7,1.7L1.8,48.9c-0.9,0-1.7-0.7-1.7-1.7
			l0-6.1C0.1,40.3,0.9,39.5,1.8,39.5z"/>
		<path class="st3" d="M11.7,43l0,2.2l0.3,0l0-2.7l-0.3,0l-1,1.5l-1-1.5l-0.3,0l0,2.7l0.3,0l0-2.2l1,1.4l0,0L11.7,43z M12.7,44.3
			l1.6,0c0,0,0,0,0-0.1c0,0,0,0,0,0c0-0.1,0-0.3-0.1-0.4c0-0.1-0.1-0.2-0.2-0.3c-0.1-0.1-0.2-0.2-0.3-0.2c-0.1-0.1-0.2-0.1-0.4-0.1
			c-0.1,0-0.3,0-0.4,0.1c-0.1,0.1-0.2,0.1-0.3,0.2c-0.1,0.1-0.2,0.2-0.2,0.3c0,0.1-0.1,0.3-0.1,0.4c0,0.2,0,0.3,0.1,0.4
			c0.1,0.1,0.1,0.2,0.2,0.3c0.1,0.1,0.2,0.2,0.3,0.2c0.1,0,0.3,0.1,0.4,0.1c0.2,0,0.4,0,0.5-0.1c0.1-0.1,0.2-0.2,0.3-0.3L14,44.7
			c-0.1,0.1-0.2,0.2-0.3,0.2C13.7,45,13.5,45,13.4,45c-0.1,0-0.2,0-0.3,0c-0.1,0-0.2-0.1-0.2-0.1c-0.1-0.1-0.1-0.1-0.2-0.2
			C12.7,44.5,12.7,44.4,12.7,44.3z M12.7,44.1c0-0.1,0-0.2,0.1-0.3c0-0.1,0.1-0.2,0.1-0.2c0.1-0.1,0.1-0.1,0.2-0.1
			c0.1,0,0.2-0.1,0.2-0.1c0.1,0,0.2,0,0.3,0.1c0.1,0,0.1,0.1,0.2,0.1c0.1,0.1,0.1,0.1,0.1,0.2c0,0.1,0.1,0.2,0.1,0.3L12.7,44.1z
			 M14.9,44c0-0.1,0-0.2,0-0.3c0-0.1,0.1-0.1,0.1-0.2c0.1-0.1,0.1-0.1,0.2-0.1c0.1,0,0.2,0,0.2,0c0.2,0,0.3,0.1,0.4,0.2
			c0.1,0.1,0.1,0.3,0.1,0.4l0,1.2l0.3,0l0-1.2c0-0.1,0-0.2-0.1-0.3c0-0.1-0.1-0.2-0.2-0.3c-0.1-0.1-0.1-0.1-0.2-0.2
			c-0.1,0-0.2-0.1-0.3-0.1c-0.2,0-0.3,0-0.4,0.1c-0.1,0.1-0.2,0.2-0.3,0.3l0-0.3l-0.3,0l0,2l0.3,0L14.9,44z M18.2,44.3
			c0,0.1,0,0.2,0,0.3c0,0.1-0.1,0.1-0.1,0.2c-0.1,0.1-0.1,0.1-0.2,0.1c-0.1,0-0.2,0-0.2,0c-0.2,0-0.3-0.1-0.4-0.2
			c-0.1-0.1-0.1-0.3-0.1-0.4l0-1.2l-0.3,0l0,1.2c0,0.1,0,0.2,0.1,0.3c0,0.1,0.1,0.2,0.2,0.3c0.1,0.1,0.1,0.1,0.2,0.2
			c0.1,0,0.2,0.1,0.3,0.1c0.2,0,0.3,0,0.4-0.1c0.1-0.1,0.2-0.2,0.3-0.3l0,0.3l0.3,0l0-2l-0.3,0L18.2,44.3z M20.3,42.7l0-0.3l-0.3,0
			l0,0.3L20.3,42.7z M20.3,45.2l0-2l-0.3,0l0,2L20.3,45.2z M21.2,43.4l0.6,0l0-0.3l-0.6,0l0-0.6l-0.3,0l0,0.6l-0.3,0l0,0.3l0.3,0
			l0,1.2c0,0.1,0,0.2,0,0.3c0,0.1,0.1,0.1,0.1,0.2c0.1,0,0.1,0.1,0.2,0.1c0.1,0,0.1,0,0.2,0c0.1,0,0.1,0,0.2,0c0.1,0,0.1,0,0.2-0.1
			l0-0.3c-0.1,0-0.1,0-0.1,0.1c0,0-0.1,0-0.1,0c-0.1,0-0.2,0-0.2-0.1c-0.1,0-0.1-0.1-0.1-0.3L21.2,43.4z M22.3,44.3l1.6,0
			c0,0,0,0,0-0.1c0,0,0,0,0,0c0-0.1,0-0.3-0.1-0.4c0-0.1-0.1-0.2-0.2-0.3c-0.1-0.1-0.2-0.2-0.3-0.2c-0.1-0.1-0.2-0.1-0.4-0.1
			c-0.1,0-0.3,0-0.4,0.1c-0.1,0.1-0.2,0.1-0.3,0.2c-0.1,0.1-0.2,0.2-0.2,0.3c0,0.1-0.1,0.3-0.1,0.4c0,0.2,0,0.3,0.1,0.4
			c0.1,0.1,0.1,0.2,0.2,0.3c0.1,0.1,0.2,0.2,0.3,0.2c0.1,0,0.3,0.1,0.4,0.1c0.2,0,0.4,0,0.5-0.1c0.1-0.1,0.2-0.2,0.3-0.3l-0.2-0.2
			c-0.1,0.1-0.2,0.2-0.3,0.2C23.3,44.9,23.1,45,23,45c-0.1,0-0.2,0-0.3,0c-0.1,0-0.2-0.1-0.2-0.1c-0.1-0.1-0.1-0.1-0.2-0.2
			C22.3,44.5,22.3,44.4,22.3,44.3z M22.3,44.1c0-0.1,0-0.2,0.1-0.3c0-0.1,0.1-0.2,0.1-0.2c0.1-0.1,0.1-0.1,0.2-0.1
			c0.1,0,0.2-0.1,0.2-0.1c0.1,0,0.2,0,0.3,0.1c0.1,0,0.1,0.1,0.2,0.1c0.1,0.1,0.1,0.1,0.1,0.2c0,0.1,0.1,0.2,0.1,0.3L22.3,44.1z
			 M25.8,43.5c-0.1-0.1-0.1-0.2-0.2-0.3c-0.1-0.1-0.2-0.1-0.4-0.1c-0.1,0-0.2,0-0.2,0c-0.1,0-0.1,0-0.2,0.1c-0.1,0-0.1,0.1-0.1,0.1
			c0,0-0.1,0.1-0.1,0.1l0-0.3l-0.3,0l0,2l0.3,0l0-1.1c0-0.1,0-0.2,0-0.3c0-0.1,0.1-0.1,0.1-0.2c0.1-0.1,0.1-0.1,0.2-0.1
			c0.1,0,0.1,0,0.2,0c0.2,0,0.3,0.1,0.4,0.2c0.1,0.1,0.1,0.2,0.1,0.4l0,1.2l0.3,0l0-1.2c0-0.1,0-0.2,0-0.3c0-0.1,0.1-0.1,0.1-0.2
			c0.1-0.1,0.1-0.1,0.2-0.1c0.1,0,0.1,0,0.2,0c0.2,0,0.3,0.1,0.4,0.2c0.1,0.1,0.1,0.3,0.1,0.4l0,1.2l0.3,0l0-1.2
			c0-0.3-0.1-0.4-0.2-0.6c-0.1-0.1-0.3-0.2-0.5-0.2c-0.1,0-0.2,0-0.2,0c-0.1,0-0.1,0-0.2,0.1c-0.1,0-0.1,0.1-0.2,0.1
			C25.9,43.4,25.8,43.5,25.8,43.5z"/>
		<path class="st1" d="M1.8,48.9l68.7-0.3c0.9,0,1.7,0.7,1.7,1.7l0,6.1c0,0.9-0.7,1.7-1.7,1.7L1.8,58.4c-0.9,0-1.7-0.7-1.7-1.7
			l0-6.1C0.2,49.7,0.9,48.9,1.8,48.9z"/>
		<path class="st3" d="M11.7,52.4l0,2.2l0.3,0l0-2.7l-0.3,0l-1,1.5l-1-1.5l-0.3,0l0,2.7l0.3,0l0-2.2l1,1.4l0,0L11.7,52.4z
			 M12.7,53.7l1.6,0c0,0,0,0,0-0.1c0,0,0,0,0,0c0-0.1,0-0.3-0.1-0.4c0-0.1-0.1-0.2-0.2-0.3c-0.1-0.1-0.2-0.2-0.3-0.2
			c-0.1-0.1-0.2-0.1-0.4-0.1c-0.1,0-0.3,0-0.4,0.1c-0.1,0.1-0.2,0.1-0.3,0.2c-0.1,0.1-0.2,0.2-0.2,0.3c0,0.1-0.1,0.3-0.1,0.4
			c0,0.2,0,0.3,0.1,0.4c0.1,0.1,0.1,0.2,0.2,0.3c0.1,0.1,0.2,0.2,0.3,0.2c0.1,0,0.3,0.1,0.4,0.1c0.2,0,0.4,0,0.5-0.1
			c0.1-0.1,0.2-0.2,0.3-0.3l-0.2-0.2c-0.1,0.1-0.2,0.2-0.3,0.2c-0.1,0.1-0.2,0.1-0.4,0.1c-0.1,0-0.2,0-0.3,0c-0.1,0-0.2-0.1-0.2-0.1
			c-0.1-0.1-0.1-0.1-0.2-0.2C12.8,53.9,12.7,53.8,12.7,53.7z M12.7,53.5c0-0.1,0-0.2,0.1-0.3c0-0.1,0.1-0.2,0.1-0.2
			c0.1-0.1,0.1-0.1,0.2-0.1c0.1,0,0.2-0.1,0.2-0.1c0.1,0,0.2,0,0.3,0.1c0.1,0,0.1,0.1,0.2,0.1c0.1,0.1,0.1,0.1,0.1,0.2
			c0,0.1,0.1,0.2,0.1,0.3L12.7,53.5z M14.9,53.5c0-0.1,0-0.2,0-0.3c0-0.1,0.1-0.1,0.1-0.2c0.1-0.1,0.1-0.1,0.2-0.1
			c0.1,0,0.2,0,0.2,0c0.2,0,0.3,0.1,0.4,0.2c0.1,0.1,0.1,0.3,0.1,0.4l0,1.2l0.3,0l0-1.2c0-0.1,0-0.2-0.1-0.3c0-0.1-0.1-0.2-0.2-0.3
			c-0.1-0.1-0.1-0.1-0.2-0.2c-0.1,0-0.2-0.1-0.3-0.1c-0.2,0-0.3,0-0.4,0.1c-0.1,0.1-0.2,0.2-0.3,0.3l0-0.3l-0.3,0l0,2l0.3,0
			L14.9,53.5z M18.3,53.7c0,0.1,0,0.2,0,0.3c0,0.1-0.1,0.1-0.1,0.2c-0.1,0.1-0.1,0.1-0.2,0.1c-0.1,0-0.2,0-0.2,0
			c-0.2,0-0.3-0.1-0.4-0.2c-0.1-0.1-0.1-0.3-0.1-0.4l0-1.2l-0.3,0l0,1.2c0,0.1,0,0.2,0.1,0.3c0,0.1,0.1,0.2,0.2,0.3
			c0.1,0.1,0.1,0.1,0.2,0.2c0.1,0,0.2,0.1,0.3,0.1c0.2,0,0.3,0,0.4-0.1c0.1-0.1,0.2-0.2,0.3-0.3l0,0.3l0.3,0l0-2l-0.3,0L18.3,53.7z
			 M20.3,52.2l0-0.3l-0.3,0l0,0.3L20.3,52.2z M20.3,54.6l0-2l-0.3,0l0,2L20.3,54.6z M21.2,52.8l0.6,0l0-0.3l-0.6,0l0-0.6l-0.3,0
			l0,0.6l-0.3,0l0,0.3l0.3,0l0,1.2c0,0.1,0,0.2,0,0.3c0,0.1,0.1,0.1,0.1,0.2c0.1,0,0.1,0.1,0.2,0.1c0.1,0,0.1,0,0.2,0
			c0.1,0,0.1,0,0.2,0c0.1,0,0.1,0,0.2-0.1l0-0.3c-0.1,0-0.1,0-0.1,0.1c0,0-0.1,0-0.1,0c-0.1,0-0.2,0-0.2-0.1c-0.1,0-0.1-0.1-0.1-0.3
			L21.2,52.8z M22.3,53.7l1.6,0c0,0,0,0,0-0.1c0,0,0,0,0,0c0-0.1,0-0.3-0.1-0.4c0-0.1-0.1-0.2-0.2-0.3c-0.1-0.1-0.2-0.2-0.3-0.2
			c-0.1-0.1-0.2-0.1-0.4-0.1c-0.1,0-0.3,0-0.4,0.1c-0.1,0.1-0.2,0.1-0.3,0.2c-0.1,0.1-0.2,0.2-0.2,0.3c0,0.1-0.1,0.3-0.1,0.4
			c0,0.2,0,0.3,0.1,0.4c0.1,0.1,0.1,0.2,0.2,0.3c0.1,0.1,0.2,0.2,0.3,0.2c0.1,0,0.3,0.1,0.4,0.1c0.2,0,0.4,0,0.5-0.1
			c0.1-0.1,0.2-0.2,0.3-0.3l-0.2-0.2c-0.1,0.1-0.2,0.2-0.3,0.2c-0.1,0.1-0.2,0.1-0.4,0.1c-0.1,0-0.2,0-0.3,0c-0.1,0-0.2-0.1-0.2-0.1
			c-0.1-0.1-0.1-0.1-0.2-0.2C22.4,53.9,22.3,53.8,22.3,53.7z M22.3,53.5c0-0.1,0-0.2,0.1-0.3c0-0.1,0.1-0.2,0.1-0.2
			c0.1-0.1,0.1-0.1,0.2-0.1c0.1,0,0.2-0.1,0.2-0.1c0.1,0,0.2,0,0.3,0.1c0.1,0,0.1,0.1,0.2,0.1c0.1,0.1,0.1,0.1,0.1,0.2
			c0,0.1,0.1,0.2,0.1,0.3L22.3,53.5z M25.8,52.9c-0.1-0.1-0.1-0.2-0.2-0.3c-0.1-0.1-0.2-0.1-0.4-0.1c-0.1,0-0.2,0-0.2,0
			c-0.1,0-0.1,0-0.2,0.1c-0.1,0-0.1,0.1-0.1,0.1c0,0-0.1,0.1-0.1,0.1l0-0.3l-0.3,0l0,2l0.3,0l0-1.1c0-0.1,0-0.2,0-0.3
			c0-0.1,0.1-0.1,0.1-0.2c0.1-0.1,0.1-0.1,0.2-0.1c0.1,0,0.1,0,0.2,0c0.2,0,0.3,0.1,0.4,0.2c0.1,0.1,0.1,0.2,0.1,0.4l0,1.2l0.3,0
			l0-1.2c0-0.1,0-0.2,0-0.3c0-0.1,0.1-0.1,0.1-0.2c0.1-0.1,0.1-0.1,0.2-0.1c0.1,0,0.1,0,0.2,0c0.2,0,0.3,0.1,0.4,0.2
			c0.1,0.1,0.1,0.3,0.1,0.4l0,1.2l0.3,0l0-1.2c0-0.3-0.1-0.4-0.2-0.6c-0.1-0.1-0.3-0.2-0.5-0.2c-0.1,0-0.2,0-0.2,0
			c-0.1,0-0.1,0-0.2,0.1c-0.1,0-0.1,0.1-0.2,0.1C25.9,52.8,25.9,52.9,25.8,52.9z"/>
	</g>
</g>
</svg>
