<?xml version="1.0" encoding="utf-8"?>
<!-- Generator: Adobe Illustrator 23.0.2, SVG Export Plug-In . SVG Version: 6.00 Build 0)  -->
<svg version="1.1" id="Capa_1" xmlns="http://www.w3.org/2000/svg" xmlns:xlink="http://www.w3.org/1999/xlink" x="0px" y="0px"
	 viewBox="0 0 75.3 75.3" style="enable-background:new 0 0 75.3 75.3;" xml:space="preserve">
<style type="text/css">
	.st0{fill:none;}
	.st1{fill-rule:evenodd;clip-rule:evenodd;}
</style>
<rect id="icon-bound" x="2.1" y="2.1" class="st0" width="71" height="71"/>
<path class="st1" d="M37.6,2.1C18,2.1,2.1,18,2.1,37.6c0,15.7,10.2,29,24.3,33.7c1.8,0.3,2.4-0.8,2.4-1.7c0-0.8,0-3.1,0-6
	c-9.9,2.1-12-4.8-12-4.8c-1.6-4.1-3.9-5.2-3.9-5.2c-3.2-2.2,0.2-2.2,0.2-2.2c3.6,0.3,5.4,3.7,5.4,3.7c3.2,5.4,8.3,3.9,10.3,3
	c0.3-2.3,1.2-3.9,2.3-4.7C23.3,52.4,15,49.4,15,35.8c0-3.9,1.4-7,3.7-9.5c-0.4-0.9-1.6-4.5,0.4-9.4c0,0,3-1,9.8,3.6
	c2.8-0.8,5.9-1.2,8.9-1.2c3,0,6.1,0.4,8.9,1.2c6.8-4.6,9.8-3.6,9.8-3.6c1.9,4.9,0.7,8.5,0.4,9.4c2.3,2.5,3.6,5.6,3.6,9.5
	c0,13.6-8.3,16.6-16.2,17.5c1.3,1.1,2.4,3.3,2.4,6.6c0,4.7,0,8.6,0,9.7c0,0.9,0.6,2.1,2.4,1.7c14.1-4.7,24.3-18,24.3-33.7
	C73.1,18,57.3,2.1,37.6,2.1z"/>
</svg>
